<svg id="svg" version="1.1" xmlns="http://www.w3.org/2000/svg" xmlns:xlink="http://www.w3.org/1999/xlink" width="400" height="400" viewBox="0, 0, 400,400"><g id="svgg"><path id="path0" d="M133.100 7.482 C 133.595 7.578,134.405 7.578,134.900 7.482 C 135.395 7.387,134.990 7.309,134.000 7.309 C 133.010 7.309,132.605 7.387,133.100 7.482 M132.402 32.357 C 131.816 32.520,132.676 32.628,134.486 32.617 C 136.180 32.608,137.259 32.478,136.883 32.328 C 136.014 31.982,133.696 31.997,132.402 32.357 M258.849 32.346 C 258.326 32.493,259.443 32.610,261.332 32.606 C 263.221 32.603,264.458 32.478,264.083 32.328 C 263.220 31.985,260.101 31.995,258.849 32.346 M251.178 36.700 L 249.800 38.200 251.300 36.822 C 252.696 35.538,252.984 35.200,252.678 35.200 C 252.612 35.200,251.937 35.875,251.178 36.700 M123.687 37.500 C 122.327 39.228,120.787 42.129,120.828 42.884 C 120.844 43.168,121.210 42.603,121.642 41.628 C 122.075 40.654,123.052 38.989,123.813 37.928 C 125.454 35.644,125.370 35.360,123.687 37.500 M272.000 36.926 C 272.000 37.055,272.540 37.960,273.200 38.938 C 273.860 39.916,274.400 40.994,274.400 41.334 C 274.400 41.675,274.580 42.064,274.800 42.200 C 275.020 42.336,275.200 42.911,275.200 43.478 L 275.200 44.508 274.395 43.485 C 273.952 42.922,273.054 42.344,272.398 42.199 C 271.741 42.055,271.041 41.645,270.841 41.288 C 270.532 40.735,270.380 40.719,269.825 41.179 C 269.115 41.768,258.091 42.070,257.745 41.510 C 257.436 41.011,253.877 41.436,252.400 42.149 C 251.630 42.521,250.235 43.263,249.300 43.797 C 248.243 44.401,247.602 44.585,247.606 44.284 C 247.614 43.627,248.467 41.287,249.279 39.693 C 249.646 38.975,249.755 38.504,249.523 38.648 C 249.291 38.791,248.538 40.099,247.850 41.554 L 246.600 44.200 246.600 61.837 L 246.600 79.474 247.968 82.195 C 254.947 96.084,274.886 92.835,276.165 77.600 C 277.441 62.408,276.401 43.325,274.099 39.658 C 273.154 38.153,272.000 36.651,272.000 36.926 M147.831 41.400 C 147.986 41.840,148.198 42.697,148.303 43.305 C 148.407 43.913,148.651 44.508,148.846 44.629 C 149.041 44.749,149.200 45.116,149.200 45.444 C 149.200 45.847,148.785 45.652,147.916 44.841 C 147.042 44.024,146.485 43.763,146.170 44.025 C 145.702 44.413,144.895 44.104,142.800 42.731 C 141.512 41.887,137.753 41.375,137.062 41.948 C 136.771 42.190,134.342 42.412,131.452 42.461 C 128.650 42.508,126.266 42.693,126.155 42.873 C 126.044 43.053,125.603 43.200,125.176 43.200 C 124.749 43.200,124.400 43.368,124.400 43.573 C 124.400 43.778,124.014 44.069,123.542 44.218 C 123.070 44.368,122.265 44.965,121.754 45.545 L 120.825 46.600 120.785 45.000 C 120.752 43.734,120.672 43.567,120.400 44.200 C 119.862 45.452,119.909 79.336,120.451 80.681 C 126.375 95.392,146.046 94.339,149.566 79.123 C 149.837 77.951,150.000 71.632,150.000 62.307 C 150.000 46.784,149.794 44.459,148.172 41.671 C 147.829 41.082,147.676 40.960,147.831 41.400 M169.607 63.792 C 169.330 64.125,169.225 67.704,169.300 74.250 L 169.415 84.200 169.507 74.100 C 169.578 66.373,169.717 63.986,170.100 63.942 C 170.375 63.911,183.380 63.908,199.000 63.937 C 214.620 63.965,227.220 63.916,227.000 63.827 C 225.812 63.346,170.005 63.312,169.607 63.792 M294.181 63.705 C 294.074 63.983,294.038 69.338,294.100 75.605 L 294.213 87.000 294.306 75.321 L 294.400 63.642 296.500 63.495 L 298.600 63.348 296.487 63.274 C 295.097 63.225,294.309 63.373,294.181 63.705 M96.100 63.876 C 96.485 63.976,97.115 63.976,97.500 63.876 C 97.885 63.775,97.570 63.693,96.800 63.693 C 96.030 63.693,95.715 63.775,96.100 63.876 M299.300 63.876 C 299.685 63.976,300.315 63.976,300.700 63.876 C 301.085 63.775,300.770 63.693,300.000 63.693 C 299.230 63.693,298.915 63.775,299.300 63.876 M315.983 71.700 C 316.964 72.745,317.819 73.600,317.883 73.600 C 318.184 73.600,317.866 73.241,316.100 71.583 L 314.200 69.800 315.983 71.700 M43.200 74.400 C 43.200 74.840,43.380 75.200,43.600 75.200 C 43.820 75.200,44.000 74.840,44.000 74.400 C 44.000 73.960,43.820 73.600,43.600 73.600 C 43.380 73.600,43.200 73.960,43.200 74.400 M72.649 85.415 C 72.512 85.773,72.418 86.456,72.441 86.933 C 72.467 87.481,72.603 87.286,72.810 86.403 C 73.160 84.916,73.065 84.333,72.649 85.415 M168.893 87.200 C 168.893 87.970,168.975 88.285,169.076 87.900 C 169.176 87.515,169.176 86.885,169.076 86.500 C 168.975 86.115,168.893 86.430,168.893 87.200 M102.501 88.200 C 102.505 89.080,102.587 89.393,102.683 88.895 C 102.779 88.398,102.775 87.678,102.675 87.295 C 102.575 86.913,102.496 87.320,102.501 88.200 M324.493 89.200 C 324.493 89.970,324.575 90.285,324.676 89.900 C 324.776 89.515,324.776 88.885,324.676 88.500 C 324.575 88.115,324.493 88.430,324.493 89.200 M324.997 181.400 C 324.997 231.340,325.043 251.829,325.100 226.932 C 325.157 202.035,325.157 161.175,325.100 136.132 C 325.043 111.089,324.997 131.460,324.997 181.400 M159.586 104.700 L 157.400 107.000 159.700 104.814 C 161.837 102.782,162.183 102.400,161.886 102.400 C 161.824 102.400,160.789 103.435,159.586 104.700 M131.507 114.690 C 132.226 114.779,133.306 114.777,133.907 114.686 C 134.508 114.595,133.920 114.522,132.600 114.524 C 131.280 114.526,130.788 114.601,131.507 114.690 M137.700 114.687 C 138.305 114.778,139.295 114.778,139.900 114.687 C 140.505 114.595,140.010 114.520,138.800 114.520 C 137.590 114.520,137.095 114.595,137.700 114.687 M256.500 114.676 C 256.885 114.776,257.515 114.776,257.900 114.676 C 258.285 114.575,257.970 114.493,257.200 114.493 C 256.430 114.493,256.115 114.575,256.500 114.676 M264.500 114.676 C 264.885 114.776,265.515 114.776,265.900 114.676 C 266.285 114.575,265.970 114.493,265.200 114.493 C 264.430 114.493,264.115 114.575,264.500 114.676 M127.900 132.282 C 128.395 132.378,129.205 132.378,129.700 132.282 C 130.195 132.187,129.790 132.109,128.800 132.109 C 127.810 132.109,127.405 132.187,127.900 132.282 M117.900 142.282 C 118.395 142.378,119.205 142.378,119.700 142.282 C 120.195 142.187,119.790 142.109,118.800 142.109 C 117.810 142.109,117.405 142.187,117.900 142.282 M153.600 143.400 C 154.346 144.170,155.047 144.800,155.157 144.800 C 155.267 144.800,154.746 144.170,154.000 143.400 C 153.254 142.630,152.553 142.000,152.443 142.000 C 152.333 142.000,152.854 142.630,153.600 143.400 M256.700 142.282 C 257.195 142.378,258.005 142.378,258.500 142.282 C 258.995 142.187,258.590 142.109,257.600 142.109 C 256.610 142.109,256.205 142.187,256.700 142.282 M110.975 145.300 L 109.800 146.600 111.100 145.425 C 111.815 144.779,112.400 144.194,112.400 144.125 C 112.400 143.816,112.070 144.088,110.975 145.300 M247.324 152.600 C 247.326 153.920,247.401 154.412,247.490 153.693 C 247.579 152.974,247.577 151.894,247.486 151.293 C 247.395 150.692,247.322 151.280,247.324 152.600 M302.093 162.400 C 302.093 163.170,302.175 163.485,302.276 163.100 C 302.376 162.715,302.376 162.085,302.276 161.700 C 302.175 161.315,302.093 161.630,302.093 162.400 M234.493 164.000 C 234.493 164.770,234.575 165.085,234.676 164.700 C 234.776 164.315,234.776 163.685,234.676 163.300 C 234.575 162.915,234.493 163.230,234.493 164.000 M257.107 163.490 C 257.826 163.579,258.906 163.577,259.507 163.486 C 260.108 163.395,259.520 163.322,258.200 163.324 C 256.880 163.326,256.388 163.401,257.107 163.490 M162.528 166.000 C 162.528 167.430,162.601 168.015,162.689 167.300 C 162.778 166.585,162.778 165.415,162.689 164.700 C 162.601 163.985,162.528 164.570,162.528 166.000 M302.093 170.000 C 302.093 170.770,302.175 171.085,302.276 170.700 C 302.376 170.315,302.376 169.685,302.276 169.300 C 302.175 168.915,302.093 169.230,302.093 170.000 M103.583 189.700 C 104.564 190.745,105.419 191.600,105.483 191.600 C 105.784 191.600,105.466 191.241,103.700 189.583 L 101.800 187.800 103.583 189.700 M149.775 192.100 L 148.600 193.400 149.900 192.225 C 151.112 191.130,151.384 190.800,151.075 190.800 C 151.006 190.800,150.421 191.385,149.775 192.100 M267.111 200.293 C 268.051 200.378,269.491 200.377,270.311 200.291 C 271.130 200.205,270.360 200.136,268.600 200.137 C 266.840 200.139,266.170 200.209,267.111 200.293 M229.693 205.600 C 229.693 206.370,229.775 206.685,229.876 206.300 C 229.976 205.915,229.976 205.285,229.876 204.900 C 229.775 204.515,229.693 204.830,229.693 205.600 M97.632 209.548 C 91.464 212.097,91.236 220.158,97.246 223.224 C 98.661 223.945,99.690 224.000,111.891 224.000 L 125.014 224.000 126.506 222.986 C 131.136 219.840,130.526 212.604,125.400 209.857 C 123.080 208.614,100.501 208.363,97.632 209.548 M271.192 209.332 C 265.497 211.973,264.922 219.577,270.154 223.061 L 271.800 224.158 283.800 224.089 C 290.400 224.052,296.354 224.016,297.031 224.010 C 302.164 223.967,305.476 215.523,301.876 211.661 C 299.341 208.941,298.468 208.797,284.713 208.832 C 276.072 208.855,271.888 209.010,271.192 209.332 M222.400 220.600 C 221.428 221.590,220.723 222.400,220.833 222.400 C 220.943 222.400,221.828 221.590,222.800 220.600 C 223.772 219.610,224.477 218.800,224.367 218.800 C 224.257 218.800,223.372 219.610,222.400 220.600 M125.985 245.768 C 115.156 248.146,113.089 262.016,122.903 266.452 L 125.000 267.400 198.600 267.510 C 280.990 267.633,274.159 267.874,277.443 264.723 C 283.646 258.769,281.218 248.218,273.089 245.804 C 270.360 244.994,129.668 244.960,125.985 245.768 M324.587 295.000 C 324.587 307.540,324.638 312.612,324.700 306.272 C 324.762 299.931,324.762 289.671,324.700 283.472 C 324.638 277.272,324.587 282.460,324.587 295.000 M178.600 291.996 L 124.600 292.200 122.657 293.164 C 114.313 297.305,114.333 308.765,122.690 312.854 C 125.459 314.208,131.837 314.323,206.827 314.364 C 280.461 314.405,273.728 314.756,277.797 310.662 C 283.738 304.685,282.438 296.350,275.012 292.806 L 272.486 291.600 252.543 291.696 C 241.574 291.748,208.300 291.883,178.600 291.996 M323.711 320.600 C 321.041 329.343,310.442 338.720,300.600 341.047 C 295.500 342.253,104.382 342.994,97.786 341.833 C 87.407 340.007,79.052 333.518,74.560 323.796 C 73.812 322.177,73.177 320.526,73.150 320.126 C 73.026 318.332,72.456 323.353,72.430 326.471 C 72.298 341.886,79.761 352.656,94.075 357.709 L 96.600 358.600 196.600 358.711 C 287.077 358.811,296.905 358.760,299.800 358.179 C 312.572 355.617,322.148 345.809,323.992 333.400 C 324.649 328.977,324.415 318.297,323.711 320.600 " stroke="none" fill="#7ac5f6" fill-rule="evenodd"></path><path id="path1" d="M137.300 7.476 C 137.685 7.576,138.315 7.576,138.700 7.476 C 139.085 7.375,138.770 7.293,138.000 7.293 C 137.230 7.293,136.915 7.375,137.300 7.476 M217.600 31.200 C 217.600 31.428,218.792 31.600,220.376 31.600 C 221.903 31.600,223.264 31.420,223.400 31.200 C 223.556 30.947,222.537 30.800,220.624 30.800 C 218.875 30.800,217.600 30.969,217.600 31.200 M298.800 31.200 C 298.800 31.426,299.933 31.600,301.400 31.600 C 302.867 31.600,304.000 31.426,304.000 31.200 C 304.000 30.974,302.867 30.800,301.400 30.800 C 299.933 30.800,298.800 30.974,298.800 31.200 M314.072 33.474 C 313.722 33.614,313.907 33.874,314.617 34.243 C 315.855 34.885,317.600 34.983,317.600 34.410 C 317.600 34.190,317.077 34.125,316.400 34.260 C 315.461 34.448,315.200 34.359,315.200 33.850 C 315.200 33.181,314.985 33.109,314.072 33.474 M78.800 34.400 C 78.800 34.620,79.070 34.800,79.400 34.800 C 79.730 34.800,80.000 34.620,80.000 34.400 C 80.000 34.180,79.730 34.000,79.400 34.000 C 79.070 34.000,78.800 34.180,78.800 34.400 M76.860 35.180 C 77.032 35.696,77.581 35.788,77.630 35.310 C 77.647 35.151,77.444 34.948,77.180 34.860 C 76.916 34.772,76.772 34.916,76.860 35.180 M320.184 36.027 C 320.039 36.261,320.020 36.553,320.143 36.676 C 320.472 37.005,321.600 36.491,321.600 36.013 C 321.600 35.470,320.521 35.480,320.184 36.027 M323.000 37.600 C 322.864 37.820,323.123 38.000,323.576 38.000 C 324.029 38.000,324.400 37.820,324.400 37.600 C 324.400 37.380,324.141 37.200,323.824 37.200 C 323.507 37.200,323.136 37.380,323.000 37.600 M325.309 37.974 C 324.930 38.580,324.955 38.774,325.434 38.958 C 326.123 39.222,326.688 38.128,326.143 37.583 C 325.926 37.366,325.591 37.523,325.309 37.974 M327.048 38.723 C 326.715 39.261,327.881 40.652,328.307 40.226 C 328.456 40.078,328.384 39.831,328.148 39.678 C 327.913 39.525,327.636 39.139,327.533 38.820 C 327.394 38.388,327.270 38.363,327.048 38.723 M329.389 40.418 C 329.084 40.911,329.948 42.079,330.408 41.795 C 330.801 41.552,330.429 40.000,329.977 40.000 C 329.796 40.000,329.531 40.188,329.389 40.418 M66.493 41.200 C 66.218 41.640,66.098 42.000,66.225 42.000 C 66.525 42.000,67.600 40.927,67.600 40.629 C 67.600 40.120,66.962 40.449,66.493 41.200 M332.413 43.100 C 332.427 43.893,333.308 45.193,333.844 45.213 C 335.133 45.262,336.587 47.600,335.328 47.600 C 334.959 47.600,334.090 47.805,333.398 48.055 C 332.095 48.526,330.000 47.690,330.000 46.698 C 330.000 45.429,328.592 45.225,319.724 45.213 L 310.848 45.200 310.724 46.700 L 310.600 48.200 298.300 48.306 L 286.000 48.412 285.940 49.706 C 285.890 50.790,285.854 50.835,285.721 49.982 C 285.582 49.088,285.401 48.984,284.229 49.121 C 283.495 49.206,282.773 49.079,282.624 48.838 C 282.475 48.597,281.733 48.400,280.976 48.400 C 279.743 48.400,279.599 48.286,279.594 47.300 C 279.584 45.555,278.964 44.906,278.602 46.262 L 278.299 47.400 277.767 46.200 C 277.315 45.178,277.233 47.478,277.218 61.754 C 277.206 72.738,277.047 79.074,276.755 80.154 C 273.030 93.943,254.096 95.934,247.609 83.218 C 245.663 79.403,245.609 78.816,245.598 61.200 C 245.591 50.333,245.454 44.807,245.200 45.200 C 244.987 45.530,244.809 47.015,244.806 48.500 L 244.800 51.200 240.400 51.200 L 236.000 51.200 236.000 49.800 L 236.000 48.400 223.400 48.400 L 210.800 48.400 210.800 49.800 L 210.800 51.200 206.200 51.200 L 201.600 51.200 201.600 49.800 C 201.600 48.257,199.083 47.597,198.545 49.000 C 198.395 49.391,197.772 49.600,196.757 49.600 C 195.640 49.600,195.200 49.431,195.200 49.000 C 195.200 48.481,193.733 48.400,184.400 48.400 L 173.600 48.400 173.600 49.800 L 173.600 51.200 167.424 51.200 C 163.737 51.200,161.148 51.039,161.000 50.800 C 160.526 50.034,158.342 50.337,158.116 51.200 C 157.953 51.821,157.570 52.000,156.400 52.000 C 155.230 52.000,154.847 51.821,154.684 51.200 C 154.534 50.626,154.138 50.400,153.284 50.400 C 152.388 50.400,152.035 50.179,151.860 49.507 C 151.670 48.781,151.530 48.710,151.113 49.126 C 150.721 49.518,150.553 53.238,150.400 64.919 C 150.290 73.324,150.048 80.560,149.863 81.000 C 148.104 85.174,145.200 88.754,142.600 89.954 C 139.149 91.545,137.362 92.000,134.559 92.000 C 131.428 92.000,129.279 91.232,125.800 88.869 C 119.576 84.643,118.890 81.568,118.822 57.618 C 118.798 48.961,118.571 46.895,117.737 47.730 C 117.360 48.107,117.324 53.171,117.700 52.938 C 117.865 52.836,117.975 53.528,117.946 54.476 C 117.916 55.424,117.815 55.813,117.723 55.341 C 117.631 54.868,117.218 54.393,116.806 54.286 C 116.300 54.153,116.016 53.655,115.929 52.745 L 115.800 51.400 104.200 51.400 L 92.600 51.400 92.483 54.500 L 92.366 57.600 91.007 57.600 C 90.259 57.600,89.536 57.420,89.400 57.200 C 89.078 56.679,86.400 56.679,86.400 57.200 C 86.400 57.449,84.075 57.600,80.224 57.600 L 74.048 57.600 73.924 59.100 L 73.800 60.600 63.600 60.600 C 55.653 60.600,53.422 60.490,53.500 60.100 C 53.555 59.825,53.420 59.578,53.200 59.550 C 52.980 59.523,52.575 59.471,52.300 59.437 C 52.025 59.402,51.662 59.559,51.493 59.787 C 51.297 60.050,51.036 59.946,50.773 59.500 C 50.267 58.642,49.600 58.585,49.600 59.400 C 49.600 59.730,49.780 60.000,50.000 60.000 C 50.220 60.000,50.400 60.174,50.400 60.387 C 50.400 60.601,50.135 60.673,49.810 60.549 C 49.056 60.259,48.000 61.305,48.000 62.342 C 48.000 62.782,48.315 63.224,48.700 63.324 C 49.112 63.432,48.929 63.526,48.253 63.554 C 47.313 63.592,47.144 63.744,47.316 64.400 C 47.457 64.941,47.328 65.200,46.916 65.200 C 46.498 65.200,46.374 65.458,46.522 66.024 C 46.658 66.542,46.515 66.934,46.139 67.079 C 45.728 67.237,45.618 67.616,45.787 68.292 C 45.923 68.834,45.867 69.484,45.662 69.738 C 45.457 69.992,45.177 71.010,45.038 72.000 C 44.470 76.056,44.048 79.442,44.025 80.124 C 44.011 80.522,43.819 80.736,43.599 80.599 C 43.331 80.434,43.199 123.003,43.201 208.776 C 43.203 282.757,43.355 337.200,43.558 337.200 C 43.752 337.200,43.903 337.425,43.893 337.700 C 43.762 341.213,44.071 345.603,44.433 345.380 C 44.691 345.220,44.833 345.412,44.786 345.856 C 44.625 347.380,44.812 348.440,45.200 348.200 C 45.438 348.053,45.600 348.529,45.600 349.376 C 45.600 350.159,45.780 350.800,46.000 350.800 C 46.220 350.800,46.400 351.250,46.400 351.800 C 46.400 352.350,46.580 352.800,46.800 352.800 C 47.020 352.800,47.200 353.340,47.200 354.000 C 47.200 354.660,47.380 355.200,47.600 355.200 C 47.820 355.200,48.000 355.560,48.000 356.000 C 48.000 356.440,48.180 356.800,48.400 356.800 C 48.620 356.800,48.800 357.160,48.800 357.600 C 48.800 358.040,48.980 358.400,49.200 358.400 C 49.420 358.400,49.600 358.760,49.600 359.200 C 49.600 359.640,49.791 360.000,50.024 360.000 C 50.257 360.000,50.336 360.180,50.200 360.400 C 50.064 360.620,50.143 360.800,50.376 360.800 C 50.609 360.800,50.800 361.068,50.800 361.395 C 50.800 362.002,51.477 362.952,53.118 364.650 C 53.623 365.173,53.836 365.600,53.592 365.600 C 53.347 365.600,54.059 366.488,55.173 367.574 C 56.288 368.660,57.200 369.743,57.200 369.981 C 57.200 370.662,62.312 375.600,63.016 375.600 C 63.363 375.600,63.536 375.780,63.400 376.000 C 63.264 376.220,63.340 376.400,63.569 376.400 C 63.798 376.400,64.634 377.030,65.427 377.800 C 66.220 378.570,67.134 379.200,67.458 379.200 C 67.782 379.200,67.936 379.380,67.800 379.600 C 67.664 379.820,67.833 380.000,68.176 380.000 C 68.519 380.000,68.800 380.180,68.800 380.400 C 68.800 380.620,69.160 380.800,69.600 380.800 C 70.040 380.800,70.400 380.980,70.400 381.200 C 70.400 381.420,70.681 381.600,71.024 381.600 C 71.393 381.600,71.531 381.788,71.362 382.062 C 71.198 382.327,71.251 382.416,71.486 382.270 C 71.711 382.131,72.414 382.463,73.048 383.008 C 73.682 383.553,74.605 383.999,75.100 384.000 C 75.595 384.000,76.000 384.180,76.000 384.400 C 76.000 384.620,76.540 384.800,77.200 384.800 C 77.860 384.800,78.400 384.980,78.400 385.200 C 78.400 385.420,78.760 385.600,79.200 385.600 C 79.640 385.600,80.000 385.780,80.000 386.000 C 80.000 386.220,80.450 386.400,81.000 386.400 C 81.550 386.400,82.000 386.580,82.000 386.800 C 82.000 387.020,82.630 387.200,83.400 387.200 C 84.170 387.200,84.800 387.380,84.800 387.600 C 84.800 387.820,85.441 388.000,86.224 388.000 C 87.007 388.000,87.551 388.156,87.432 388.348 C 87.314 388.539,88.827 388.728,90.793 388.768 C 92.760 388.807,94.781 388.966,95.284 389.119 C 96.593 389.518,302.395 389.462,303.600 389.062 C 304.356 388.812,304.454 388.835,304.000 389.159 C 303.630 389.424,303.582 389.590,303.876 389.594 C 304.138 389.597,304.464 389.420,304.600 389.200 C 304.736 388.980,305.747 388.800,306.847 388.800 C 308.079 388.800,308.752 388.646,308.600 388.400 C 308.464 388.180,308.734 388.000,309.200 388.000 C 309.666 388.000,309.946 388.163,309.823 388.363 C 309.700 388.562,310.048 388.517,310.596 388.263 C 311.145 388.008,311.595 387.665,311.597 387.500 C 311.599 387.335,312.140 387.200,312.800 387.200 C 313.460 387.200,314.000 387.020,314.000 386.800 C 314.000 386.580,314.551 386.400,315.224 386.400 C 316.056 386.400,316.355 386.250,316.158 385.932 C 315.965 385.619,316.085 385.547,316.523 385.715 C 316.883 385.853,317.439 385.704,317.760 385.383 C 318.081 385.062,318.716 384.800,319.171 384.800 C 319.627 384.800,320.000 384.620,320.000 384.400 C 320.000 384.180,320.360 384.000,320.800 384.000 C 321.240 384.000,321.600 383.820,321.600 383.600 C 321.600 383.380,321.960 383.200,322.400 383.200 C 322.840 383.200,323.200 383.020,323.200 382.800 C 323.200 382.580,323.520 382.400,323.912 382.400 C 324.303 382.400,324.883 382.040,325.200 381.600 C 325.517 381.160,326.097 380.800,326.488 380.800 C 326.880 380.800,327.200 380.609,327.200 380.376 C 327.200 380.143,327.380 380.064,327.600 380.200 C 327.820 380.336,328.000 380.167,328.000 379.824 C 328.000 379.415,328.367 379.200,329.067 379.200 C 329.653 379.200,330.024 379.091,329.891 378.957 C 329.534 378.600,330.520 377.671,331.043 377.872 C 331.290 377.966,332.183 377.314,333.028 376.422 C 333.873 375.530,334.808 374.800,335.106 374.800 C 335.404 374.800,335.536 374.620,335.400 374.400 C 335.264 374.180,335.354 374.000,335.600 374.000 C 335.846 374.000,335.936 373.820,335.800 373.600 C 335.664 373.380,335.844 373.200,336.200 373.200 C 336.556 373.200,336.736 373.020,336.600 372.800 C 336.464 372.580,336.663 372.400,337.043 372.400 C 337.423 372.400,337.623 372.290,337.489 372.156 C 337.355 372.021,338.315 370.861,339.622 369.578 C 340.930 368.294,342.000 367.037,342.000 366.783 C 342.000 366.529,342.540 365.817,343.200 365.200 C 343.860 364.583,344.400 363.955,344.400 363.804 C 344.400 363.652,344.752 363.229,345.183 362.864 C 345.614 362.499,346.019 361.930,346.083 361.600 C 346.147 361.270,346.522 360.702,346.916 360.339 C 347.455 359.842,347.505 359.626,347.116 359.470 C 346.721 359.312,346.717 359.256,347.100 359.232 C 347.375 359.214,347.600 358.914,347.600 358.564 C 347.600 358.214,348.005 357.571,348.500 357.134 C 348.995 356.697,349.175 356.453,348.900 356.593 C 348.625 356.733,348.400 356.676,348.400 356.466 C 348.400 356.257,348.690 355.974,349.045 355.838 C 349.567 355.638,349.596 355.477,349.196 354.995 C 348.853 354.582,348.839 354.400,349.151 354.400 C 349.398 354.400,349.600 354.040,349.600 353.600 C 349.600 353.160,349.780 352.800,350.000 352.800 C 350.220 352.800,350.400 352.260,350.400 351.600 C 350.400 350.940,350.580 350.400,350.800 350.400 C 351.020 350.400,351.200 349.770,351.200 349.000 C 351.200 348.230,351.380 347.600,351.600 347.600 C 351.820 347.600,352.000 346.790,352.000 345.800 C 352.000 344.810,352.180 344.000,352.400 344.000 C 352.635 344.000,352.800 342.608,352.800 340.624 C 352.800 338.767,352.981 337.135,353.202 336.999 C 353.755 336.657,353.749 80.800,353.196 80.800 C 352.961 80.800,352.800 79.167,352.800 76.776 C 352.800 74.196,352.657 72.841,352.400 73.000 C 352.158 73.149,352.000 72.604,352.000 71.624 C 352.000 70.731,351.820 70.000,351.600 70.000 C 351.380 70.000,351.200 69.550,351.200 69.000 C 351.200 68.450,351.020 68.000,350.800 68.000 C 350.580 68.000,350.400 67.550,350.400 67.000 C 350.400 66.450,350.200 66.000,349.955 66.000 C 349.691 66.000,349.579 65.528,349.679 64.841 C 349.802 64.003,349.704 63.739,349.325 63.884 C 348.974 64.019,348.800 63.739,348.800 63.043 C 348.800 62.469,348.608 62.000,348.373 62.000 C 348.128 62.000,348.054 61.659,348.200 61.200 C 348.383 60.623,348.272 60.400,347.800 60.400 C 347.329 60.400,347.217 60.177,347.399 59.603 C 347.601 58.967,347.513 58.859,346.966 59.068 C 346.399 59.286,346.323 59.161,346.528 58.345 C 346.707 57.630,346.558 57.203,345.988 56.791 C 345.554 56.479,345.200 55.946,345.200 55.608 C 345.200 55.269,344.840 54.768,344.400 54.493 C 343.960 54.218,343.600 53.745,343.600 53.442 C 343.600 53.138,343.062 52.465,342.404 51.945 C 341.746 51.425,341.206 50.764,341.204 50.476 C 341.202 50.188,341.020 50.064,340.800 50.200 C 340.580 50.336,340.400 50.202,340.400 49.902 C 340.400 49.225,337.855 46.400,337.246 46.400 C 337.001 46.400,336.800 46.201,336.800 45.957 C 336.800 45.714,336.530 45.618,336.200 45.745 C 335.870 45.871,335.596 45.846,335.591 45.687 C 335.579 45.320,332.957 42.400,332.639 42.400 C 332.508 42.400,332.406 42.715,332.413 43.100 M63.700 43.423 C 63.111 44.063,63.062 44.400,63.557 44.400 C 63.898 44.400,64.537 43.196,64.309 42.983 C 64.249 42.927,63.975 43.125,63.700 43.423 M59.342 46.586 C 58.881 46.908,58.391 47.058,58.253 46.919 C 58.114 46.780,58.000 47.057,58.000 47.533 C 58.000 48.010,57.809 48.400,57.576 48.400 C 57.343 48.400,57.281 48.192,57.438 47.938 C 57.616 47.650,57.548 47.585,57.255 47.766 C 56.998 47.925,56.870 48.190,56.972 48.355 C 57.074 48.520,56.816 48.900,56.400 49.200 C 55.984 49.500,55.739 49.902,55.857 50.092 C 55.975 50.283,56.345 50.212,56.679 49.935 C 57.180 49.519,57.389 49.568,57.870 50.215 C 58.422 50.959,58.439 50.945,58.193 49.939 C 58.022 49.240,58.119 48.762,58.476 48.539 C 58.975 48.228,60.574 46.000,60.298 46.000 C 60.232 46.000,59.802 46.264,59.342 46.586 M60.670 47.361 C 60.445 47.949,60.703 48.400,61.267 48.400 C 61.450 48.400,61.600 48.040,61.600 47.600 C 61.600 46.683,60.991 46.526,60.670 47.361 M279.861 50.000 C 280.448 50.000,280.800 50.236,280.800 50.628 C 280.800 51.051,280.507 51.213,279.900 51.125 C 279.405 51.053,278.781 51.265,278.513 51.597 C 278.115 52.090,278.028 51.834,278.040 50.200 C 278.052 48.471,278.113 48.322,278.488 49.100 C 278.756 49.654,279.283 50.000,279.861 50.000 M53.317 52.796 C 53.203 53.233,52.942 53.488,52.738 53.362 C 52.525 53.230,52.476 53.563,52.623 54.149 C 52.840 55.012,52.716 55.206,51.806 55.434 C 51.010 55.634,50.784 55.896,50.929 56.452 C 51.051 56.915,50.916 57.200,50.575 57.200 C 50.251 57.200,50.119 57.446,50.255 57.800 C 50.713 58.993,52.437 57.865,53.006 56.000 C 53.497 54.392,55.397 52.777,55.712 53.700 C 55.806 53.975,55.805 53.750,55.709 53.201 C 55.474 51.852,55.301 51.744,54.340 52.345 C 53.887 52.628,53.636 52.666,53.782 52.430 C 53.928 52.193,53.930 52.000,53.786 52.000 C 53.643 52.000,53.431 52.358,53.317 52.796 M54.415 55.972 C 53.850 57.027,54.259 58.701,54.920 58.040 C 55.162 57.798,56.044 57.600,56.880 57.600 C 58.133 57.600,58.400 57.460,58.400 56.800 C 58.400 56.162,58.133 56.000,57.080 56.000 C 56.354 56.000,55.561 55.801,55.317 55.557 C 54.993 55.233,54.751 55.345,54.415 55.972 M103.985 92.000 C 105.737 96.589,105.989 97.110,107.751 99.800 C 116.543 113.216,135.330 118.022,150.400 110.710 C 151.830 110.017,153.090 109.347,153.200 109.223 C 153.310 109.099,154.396 108.241,155.614 107.317 C 166.145 99.320,169.146 91.372,168.712 72.629 C 168.600 67.773,168.589 63.575,168.687 63.300 C 169.013 62.391,227.993 62.589,228.025 63.500 C 228.038 63.885,228.084 69.780,228.126 76.600 L 228.203 89.000 229.308 92.089 C 231.365 97.842,235.080 103.092,239.432 106.399 C 240.734 107.388,241.890 108.288,242.000 108.399 C 242.110 108.510,242.650 108.861,243.200 109.181 C 256.437 116.873,272.934 115.438,283.661 105.661 C 286.819 102.783,291.600 95.862,291.600 94.170 C 291.600 93.851,291.758 93.277,291.951 92.895 C 293.057 90.704,293.200 88.784,293.200 76.072 L 293.200 62.800 297.576 62.800 C 300.063 62.800,302.060 62.973,302.200 63.200 C 302.336 63.420,303.056 63.600,303.800 63.600 C 304.544 63.600,305.264 63.780,305.400 64.000 C 305.536 64.220,306.087 64.400,306.624 64.400 C 307.161 64.400,307.600 64.536,307.600 64.702 C 307.600 64.869,308.185 65.259,308.900 65.569 C 312.412 67.093,318.865 72.796,320.368 75.702 C 320.680 76.306,321.085 76.800,321.268 76.800 C 321.450 76.800,321.600 77.160,321.600 77.600 C 321.600 78.040,321.736 78.400,321.902 78.400 C 322.172 78.400,322.548 79.162,323.580 81.800 C 323.752 82.240,324.085 83.050,324.319 83.600 C 324.554 84.150,324.881 85.230,325.046 86.000 C 325.535 88.276,325.417 314.318,324.922 325.400 C 324.293 339.460,322.953 343.177,316.044 350.023 C 310.798 355.220,305.269 357.981,298.000 359.034 C 293.485 359.688,111.747 359.853,101.600 359.212 C 91.207 358.556,85.136 355.441,77.798 347.000 C 76.468 345.470,73.443 339.210,72.773 336.600 C 71.885 333.144,71.741 312.723,71.790 196.800 C 71.839 80.492,71.813 82.454,73.314 80.953 C 73.471 80.795,73.600 80.337,73.600 79.933 C 73.600 79.530,73.780 79.200,74.000 79.200 C 74.220 79.200,74.400 78.840,74.400 78.400 C 74.400 77.960,74.580 77.600,74.800 77.600 C 75.020 77.600,75.200 77.240,75.200 76.800 C 75.200 76.360,75.380 76.000,75.600 76.000 C 75.820 76.000,76.000 75.762,76.000 75.471 C 76.000 73.781,85.883 65.200,87.830 65.200 C 88.200 65.200,88.400 64.976,88.288 64.686 C 88.145 64.312,88.461 64.214,89.445 64.329 C 90.266 64.425,90.800 64.313,90.800 64.044 C 90.800 63.793,91.495 63.600,92.400 63.600 C 93.280 63.600,94.000 63.426,94.000 63.213 C 94.000 62.994,95.946 62.777,98.500 62.713 L 103.000 62.600 103.225 76.600 C 103.390 86.847,103.594 90.975,103.985 92.000 M121.800 133.659 C 105.399 137.513,95.240 150.133,95.207 166.694 C 95.200 170.425,95.479 172.105,96.878 176.757 C 99.684 186.084,106.985 193.806,116.606 197.622 C 120.263 199.072,131.528 199.772,135.400 198.789 C 140.408 197.519,144.478 195.626,147.930 192.962 C 160.529 183.239,165.120 167.258,159.383 153.090 C 156.143 145.086,148.056 137.602,139.400 134.595 C 135.597 133.273,125.683 132.746,121.800 133.659 M261.600 133.669 C 260.830 133.883,259.480 134.245,258.600 134.474 C 248.687 137.058,239.310 146.450,236.508 156.600 C 236.265 157.480,235.859 158.920,235.606 159.800 C 235.073 161.651,235.270 170.417,235.906 173.200 C 240.244 192.154,260.163 203.960,278.120 198.220 C 280.862 197.343,286.646 194.650,287.200 193.991 C 287.310 193.861,287.850 193.446,288.400 193.071 C 300.601 184.736,305.271 165.419,298.433 151.577 C 294.443 143.502,287.715 137.622,279.000 134.595 C 275.198 133.274,264.989 132.731,261.600 133.669 M123.447 142.676 C 133.660 147.676,132.299 161.194,121.299 164.013 C 115.146 165.590,107.200 159.293,107.200 152.841 C 107.200 144.732,116.176 139.115,123.447 142.676 M262.800 142.736 C 269.998 146.478,271.331 155.864,265.435 161.303 C 261.646 164.798,255.201 165.220,251.742 162.200 C 251.490 161.980,250.725 161.352,250.042 160.804 C 249.359 160.257,248.800 159.655,248.800 159.466 C 248.800 159.278,248.469 158.646,248.065 158.062 C 241.989 149.284,253.122 137.705,262.800 142.736 M170.983 199.545 C 164.529 203.481,169.348 217.308,179.600 224.271 C 196.735 235.910,222.670 228.376,228.198 210.155 C 231.666 198.724,221.194 194.006,215.566 204.463 C 207.670 219.133,189.085 219.413,181.800 204.972 C 178.903 199.229,174.842 197.192,170.983 199.545 " stroke="none" fill="#0e3f60" fill-rule="evenodd"></path><path id="path2" d="M132.000 32.755 C 126.368 33.995,120.772 40.148,120.813 45.057 L 120.825 46.600 121.754 45.545 C 122.265 44.965,123.070 44.368,123.542 44.218 C 124.014 44.069,124.400 43.778,124.400 43.573 C 124.400 43.368,124.749 43.200,125.176 43.200 C 125.603 43.200,126.044 43.053,126.155 42.873 C 126.266 42.693,128.650 42.508,131.452 42.461 C 134.342 42.412,136.771 42.190,137.062 41.948 C 137.753 41.375,141.512 41.887,142.800 42.731 C 144.895 44.104,145.702 44.413,146.170 44.025 C 146.485 43.763,147.042 44.024,147.916 44.841 C 148.785 45.652,149.200 45.847,149.200 45.444 C 149.200 45.116,149.020 44.736,148.800 44.600 C 148.580 44.464,148.400 43.992,148.400 43.551 C 148.400 37.560,138.821 31.254,132.000 32.755 M258.800 32.652 C 255.280 33.331,250.753 36.690,249.320 39.687 C 247.042 44.451,247.039 45.089,249.300 43.797 C 250.235 43.263,251.630 42.521,252.400 42.149 C 253.877 41.436,257.436 41.011,257.745 41.510 C 258.091 42.070,269.115 41.768,269.825 41.179 C 270.380 40.719,270.532 40.735,270.841 41.288 C 271.041 41.645,271.741 42.055,272.398 42.199 C 273.054 42.344,273.952 42.922,274.395 43.485 C 275.294 44.627,275.622 43.612,274.844 42.095 C 274.649 41.713,274.168 40.744,273.776 39.942 C 271.287 34.850,264.509 31.551,258.800 32.652 M95.800 64.015 C 94.480 64.177,92.770 64.497,92.000 64.727 C 91.230 64.958,90.150 65.279,89.600 65.441 C 81.942 67.700,74.876 76.350,72.967 85.800 C 72.232 89.436,72.106 314.656,72.837 318.627 C 74.876 329.714,85.600 339.689,97.786 341.833 C 104.382 342.994,295.500 342.253,300.600 341.047 C 310.381 338.734,320.016 330.331,323.586 320.999 L 324.504 318.600 324.552 203.000 C 324.592 106.412,324.510 87.104,324.054 85.600 C 320.785 74.812,313.863 67.665,303.600 64.478 C 302.830 64.239,300.445 63.919,298.300 63.767 L 294.400 63.490 294.392 74.645 C 294.382 88.467,293.791 92.354,290.907 97.536 C 278.670 119.526,248.086 120.923,232.598 100.200 C 228.116 94.203,227.200 89.986,227.200 75.349 L 227.200 64.099 198.900 63.918 C 183.335 63.818,170.397 63.807,170.149 63.892 C 169.835 64.001,169.640 67.636,169.503 75.924 L 169.306 87.800 168.090 91.424 C 165.802 98.240,161.945 103.488,155.368 108.732 C 140.246 120.790,113.277 114.285,105.029 96.589 C 102.607 91.392,102.632 91.570,102.408 77.600 C 102.294 70.450,102.054 64.375,101.876 64.100 C 101.529 63.563,99.710 63.537,95.800 64.015 M43.467 71.467 C 43.048 71.885,43.155 73.600,43.600 73.600 C 43.820 73.600,44.000 73.060,44.000 72.400 C 44.000 71.157,43.919 71.015,43.467 71.467 M132.123 132.414 C 138.590 133.344,141.749 134.354,145.800 136.788 C 157.534 143.838,164.116 156.869,162.426 169.700 C 160.683 182.932,150.981 194.588,138.000 199.045 C 135.309 199.969,122.667 200.119,119.600 199.264 C 115.676 198.169,109.985 195.460,108.320 193.894 C 108.031 193.622,106.743 192.516,105.459 191.436 C 100.606 187.357,96.886 180.924,95.222 173.736 C 94.660 171.308,94.613 160.469,95.157 158.655 C 97.559 150.640,99.172 147.745,104.000 142.786 C 110.016 136.606,116.205 133.526,124.800 132.432 C 128.538 131.957,128.938 131.956,132.123 132.414 M276.600 133.141 C 277.260 133.356,278.520 133.752,279.400 134.020 C 302.510 141.062,310.110 171.389,293.324 189.583 C 280.179 203.831,257.782 203.933,244.263 189.806 C 240.486 185.859,236.400 179.318,236.400 177.219 C 236.400 176.856,236.249 176.389,236.064 176.180 C 234.697 174.631,234.045 162.522,235.130 158.800 C 236.298 154.791,236.548 154.096,237.723 151.600 C 242.362 141.741,251.742 134.529,262.200 132.779 C 264.714 132.359,274.996 132.617,276.600 133.141 M114.209 143.204 C 104.108 148.376,107.754 163.285,119.130 163.325 C 133.099 163.375,132.778 143.065,118.800 142.509 C 116.406 142.414,115.479 142.555,114.209 143.204 M253.655 142.948 C 246.894 145.394,245.266 155.553,250.830 160.579 C 257.647 166.739,268.388 162.102,268.388 153.000 C 268.388 145.550,260.789 140.366,253.655 142.948 M178.296 199.334 C 179.927 200.364,180.948 201.594,182.002 203.800 C 188.944 218.324,207.220 218.692,214.789 204.461 C 217.544 199.279,220.124 197.558,224.148 198.216 C 232.578 199.593,231.082 213.607,221.651 221.611 C 220.633 222.475,219.260 223.639,218.600 224.197 C 205.867 234.966,180.887 231.364,171.458 217.400 C 170.269 215.639,168.936 212.905,168.435 211.200 C 168.144 210.210,167.748 208.878,167.553 208.240 C 165.357 201.032,172.113 195.431,178.296 199.334 M125.400 209.857 C 130.526 212.604,131.136 219.840,126.506 222.986 L 125.014 224.000 111.891 224.000 C 99.690 224.000,98.661 223.945,97.246 223.224 C 91.236 220.158,91.464 212.097,97.632 209.548 C 100.501 208.363,123.080 208.614,125.400 209.857 M299.113 209.760 C 303.332 211.908,304.483 215.416,302.509 220.104 C 301.747 221.912,298.826 223.995,297.031 224.010 C 296.354 224.016,290.400 224.052,283.800 224.089 L 271.800 224.158 270.154 223.061 C 264.922 219.577,265.497 211.973,271.192 209.332 C 273.434 208.293,296.937 208.653,299.113 209.760 M273.089 245.804 C 281.218 248.218,283.646 258.769,277.443 264.723 C 274.159 267.874,280.990 267.633,198.600 267.510 L 125.000 267.400 122.903 266.452 C 113.089 262.016,115.156 248.146,125.985 245.768 C 129.668 244.960,270.360 244.994,273.089 245.804 M275.012 292.806 C 282.438 296.350,283.738 304.685,277.797 310.662 C 273.728 314.756,280.461 314.405,206.827 314.364 C 131.837 314.323,125.459 314.208,122.690 312.854 C 114.333 308.765,114.313 297.305,122.657 293.164 L 124.600 292.200 178.600 291.996 C 208.300 291.883,241.574 291.748,252.543 291.696 L 272.486 291.600 275.012 292.806 " stroke="none" fill="#f7fafb" fill-rule="evenodd"></path><path id="path3" d="M129.300 7.515 C 128.585 7.590,128.000 7.815,128.000 8.016 C 128.000 8.217,127.325 8.371,126.500 8.357 C 124.473 8.324,122.358 8.809,122.628 9.245 C 122.748 9.440,122.482 9.600,122.036 9.600 C 121.589 9.600,120.583 9.960,119.800 10.400 C 119.017 10.840,118.111 11.200,117.788 11.200 C 117.465 11.200,117.200 11.358,117.200 11.551 C 117.200 11.745,116.660 12.127,116.000 12.400 C 115.340 12.673,114.800 13.055,114.800 13.249 C 114.800 13.442,114.564 13.600,114.275 13.600 C 113.987 13.600,113.376 13.949,112.918 14.376 C 112.460 14.803,112.010 15.076,111.917 14.984 C 111.546 14.613,106.402 20.137,106.396 20.913 C 106.394 21.181,105.854 21.825,105.196 22.345 C 104.538 22.865,104.000 23.540,104.000 23.845 C 104.000 24.150,103.820 24.400,103.600 24.400 C 103.380 24.400,103.200 24.670,103.200 25.000 C 103.200 25.330,103.020 25.600,102.800 25.600 C 102.580 25.600,102.400 25.870,102.400 26.200 C 102.400 26.530,102.220 26.800,102.000 26.800 C 101.780 26.800,101.600 27.160,101.600 27.600 C 101.600 28.040,101.420 28.400,101.200 28.400 C 100.980 28.400,100.800 28.683,100.800 29.029 C 100.800 30.387,99.754 30.800,96.309 30.800 C 94.237 30.800,92.777 30.983,92.480 31.280 C 92.107 31.653,92.000 31.653,92.000 31.280 C 92.000 30.987,91.378 30.800,90.400 30.800 C 89.520 30.800,88.800 30.980,88.800 31.200 C 88.800 31.420,87.900 31.600,86.800 31.600 C 85.700 31.600,84.800 31.769,84.800 31.975 C 84.800 32.181,84.215 32.406,83.500 32.475 C 82.519 32.569,82.229 32.772,82.318 33.300 C 82.382 33.685,82.247 34.000,82.018 34.000 C 81.788 34.000,81.600 33.807,81.600 33.572 C 81.600 33.337,81.195 33.202,80.700 33.272 C 80.099 33.358,79.839 33.633,79.918 34.100 C 79.987 34.515,79.784 34.800,79.418 34.800 C 79.078 34.800,78.800 34.620,78.800 34.400 C 78.800 34.180,78.509 34.000,78.153 34.000 C 77.704 34.000,77.570 34.244,77.716 34.800 C 77.967 35.762,77.295 36.314,76.954 35.425 C 76.600 34.501,76.005 34.667,75.968 35.700 C 75.951 36.195,75.846 36.375,75.735 36.100 C 75.445 35.380,74.851 35.476,72.632 36.602 C 71.550 37.151,70.425 37.600,70.132 37.600 C 69.839 37.600,69.600 37.780,69.600 38.000 C 69.600 38.220,69.330 38.400,69.000 38.400 C 68.670 38.400,68.400 38.580,68.400 38.800 C 68.400 39.020,68.170 39.200,67.888 39.200 C 67.607 39.200,67.117 39.560,66.800 40.000 C 66.483 40.440,66.033 40.800,65.800 40.800 C 65.567 40.800,65.117 41.160,64.800 41.600 C 64.483 42.040,64.020 42.400,63.771 42.400 C 63.522 42.400,62.788 42.907,62.140 43.526 C 61.492 44.146,60.655 44.770,60.281 44.914 C 59.906 45.057,59.600 45.461,59.600 45.811 C 59.600 46.173,59.790 46.330,60.041 46.174 C 60.284 46.024,60.154 46.419,59.751 47.051 C 59.349 47.683,58.775 48.352,58.476 48.539 C 58.119 48.762,58.022 49.240,58.193 49.939 C 58.439 50.945,58.422 50.959,57.870 50.215 C 57.402 49.586,57.172 49.526,56.706 49.912 C 56.387 50.176,56.008 50.275,55.863 50.130 C 55.718 49.985,55.600 50.087,55.600 50.357 C 55.600 50.627,55.453 50.756,55.273 50.645 C 55.094 50.534,54.626 50.986,54.234 51.650 C 53.528 52.845,53.529 52.851,54.343 52.343 C 55.301 51.744,55.474 51.853,55.709 53.201 C 55.805 53.750,55.806 53.975,55.712 53.700 C 55.397 52.777,53.497 54.392,53.006 56.000 C 52.495 57.672,50.400 59.216,50.400 57.920 C 50.400 57.571,50.280 57.560,49.960 57.880 C 49.640 58.200,49.762 58.562,50.407 59.207 C 50.895 59.695,51.408 59.932,51.547 59.734 C 51.686 59.536,52.025 59.402,52.300 59.437 C 52.575 59.471,52.980 59.523,53.200 59.550 C 53.420 59.578,53.555 59.825,53.500 60.100 C 53.422 60.490,55.653 60.600,63.600 60.600 L 73.800 60.600 73.924 59.100 L 74.048 57.600 80.224 57.600 C 84.075 57.600,86.400 57.449,86.400 57.200 C 86.400 56.679,89.078 56.679,89.400 57.200 C 89.536 57.420,90.259 57.600,91.007 57.600 L 92.366 57.600 92.483 54.500 L 92.600 51.400 104.200 51.400 L 115.800 51.400 115.929 52.745 C 116.016 53.655,116.300 54.153,116.806 54.286 C 117.218 54.393,117.631 54.868,117.723 55.341 C 117.815 55.813,117.916 55.424,117.946 54.476 C 117.975 53.528,117.865 52.836,117.700 52.938 C 117.324 53.171,117.360 48.107,117.737 47.730 C 118.571 46.895,118.798 48.961,118.822 57.618 C 118.890 81.568,119.576 84.643,125.800 88.869 C 129.279 91.232,131.428 92.000,134.559 92.000 C 137.419 92.000,138.764 91.649,142.800 89.846 C 145.286 88.737,148.220 84.975,149.949 80.681 C 150.256 79.919,150.373 75.649,150.314 67.281 L 150.228 55.000 149.995 67.400 C 149.737 81.183,149.682 81.515,147.049 85.090 C 140.006 94.658,125.671 92.979,120.672 82.000 C 119.905 80.317,119.844 79.302,119.722 66.400 C 119.651 58.810,119.549 50.681,119.496 48.336 C 119.443 45.991,119.515 44.260,119.657 44.490 C 119.798 44.719,120.042 44.298,120.200 43.553 C 123.311 28.856,144.913 28.256,149.018 42.753 C 149.180 43.325,149.398 43.527,149.563 43.260 C 149.715 43.015,149.849 43.486,149.862 44.307 C 149.911 47.448,150.503 50.615,150.860 49.649 C 151.209 48.707,152.000 48.829,152.000 49.824 C 152.000 50.201,152.427 50.400,153.237 50.400 C 154.138 50.400,154.532 50.617,154.684 51.200 C 154.847 51.821,155.230 52.000,156.400 52.000 C 157.570 52.000,157.953 51.821,158.116 51.200 C 158.342 50.337,160.526 50.034,161.000 50.800 C 161.148 51.039,163.737 51.200,167.424 51.200 L 173.600 51.200 173.600 49.800 L 173.600 48.400 184.400 48.400 C 193.733 48.400,195.200 48.481,195.200 49.000 C 195.200 49.431,195.640 49.600,196.757 49.600 C 197.772 49.600,198.395 49.391,198.545 49.000 C 199.083 47.597,201.600 48.257,201.600 49.800 L 201.600 51.200 206.200 51.200 L 210.800 51.200 210.800 49.800 L 210.800 48.400 223.400 48.400 L 236.000 48.400 236.000 49.800 L 236.000 51.200 240.400 51.200 L 244.800 51.200 244.806 48.500 C 244.809 47.015,244.987 45.530,245.200 45.200 C 245.454 44.807,245.591 50.333,245.598 61.200 C 245.609 78.816,245.663 79.403,247.609 83.218 C 254.096 95.934,273.030 93.943,276.755 80.154 C 277.047 79.074,277.206 72.738,277.218 61.754 C 277.233 47.478,277.315 45.178,277.767 46.200 L 278.299 47.400 278.602 46.262 C 278.964 44.906,279.584 45.555,279.594 47.300 C 279.599 48.286,279.743 48.400,280.976 48.400 C 281.733 48.400,282.475 48.597,282.624 48.838 C 282.773 49.079,283.495 49.206,284.229 49.121 C 285.401 48.984,285.582 49.088,285.721 49.982 C 285.854 50.835,285.890 50.790,285.940 49.706 L 286.000 48.412 298.300 48.306 L 310.600 48.200 310.724 46.700 L 310.848 45.200 319.724 45.213 C 328.592 45.225,330.000 45.429,330.000 46.698 C 330.000 47.690,332.095 48.526,333.398 48.055 C 334.090 47.805,334.959 47.600,335.328 47.600 C 336.642 47.600,335.108 45.255,333.768 45.213 C 333.148 45.194,332.252 43.363,332.520 42.665 C 332.644 42.340,332.429 41.788,332.042 41.438 C 331.311 40.776,330.365 40.576,330.447 41.100 C 330.571 41.881,330.348 42.055,329.804 41.603 C 329.427 41.290,329.296 40.758,329.447 40.154 C 329.641 39.384,329.531 39.200,328.877 39.200 C 328.431 39.200,327.976 38.975,327.865 38.700 C 327.744 38.401,327.650 38.482,327.632 38.900 C 327.614 39.285,327.401 39.600,327.157 39.600 C 326.914 39.600,326.816 39.336,326.940 39.013 C 327.064 38.690,327.012 38.331,326.824 38.215 C 326.637 38.099,326.382 38.271,326.257 38.596 C 326.123 38.944,325.767 39.085,325.388 38.940 C 324.933 38.766,324.871 38.569,325.173 38.267 C 325.854 37.586,325.707 37.395,323.747 36.416 C 322.068 35.578,321.858 35.552,321.527 36.145 C 321.154 36.811,320.000 37.064,320.000 36.480 C 320.000 36.304,320.225 35.933,320.500 35.655 C 320.901 35.251,320.841 35.059,320.200 34.689 C 319.104 34.058,317.600 33.883,317.600 34.386 C 317.600 34.994,315.864 34.890,314.546 34.202 C 313.916 33.874,313.595 33.604,313.833 33.602 C 314.072 33.601,314.267 33.330,314.267 33.000 C 314.267 32.559,313.807 32.400,312.533 32.400 C 311.580 32.400,310.800 32.220,310.800 32.000 C 310.800 31.780,310.350 31.600,309.800 31.600 C 309.250 31.600,308.800 31.780,308.800 32.000 C 308.800 32.220,308.609 32.400,308.376 32.400 C 308.143 32.400,308.064 32.220,308.200 32.000 C 308.336 31.780,308.167 31.600,307.824 31.600 C 307.481 31.600,307.200 31.420,307.200 31.200 C 307.200 30.980,306.480 30.800,305.600 30.800 C 304.720 30.800,304.000 30.980,304.000 31.200 C 304.000 31.807,298.904 31.711,298.698 31.100 C 298.566 30.707,298.391 30.715,297.882 31.135 C 297.146 31.743,295.200 30.207,295.200 29.018 C 295.200 28.678,295.020 28.400,294.800 28.400 C 294.580 28.400,294.400 28.166,294.400 27.880 C 294.400 27.144,293.459 25.207,293.100 25.203 C 292.935 25.201,292.800 24.840,292.800 24.400 C 292.800 23.960,292.659 23.600,292.486 23.600 C 292.314 23.600,291.829 23.015,291.409 22.300 C 290.988 21.585,289.968 20.347,289.140 19.549 C 288.313 18.750,287.748 17.985,287.885 17.849 C 288.021 17.712,287.909 17.600,287.635 17.600 C 287.361 17.600,286.446 16.880,285.600 16.000 C 284.754 15.120,283.818 14.400,283.520 14.400 C 283.221 14.400,282.717 14.040,282.400 13.600 C 282.083 13.160,281.503 12.800,281.112 12.800 C 280.720 12.800,280.400 12.655,280.400 12.479 C 280.400 12.018,276.854 10.167,274.127 9.204 C 271.652 8.331,271.036 8.193,267.103 7.634 C 263.008 7.052,252.941 7.575,251.400 8.450 C 251.180 8.574,250.100 8.911,249.000 9.197 C 247.900 9.484,246.829 9.871,246.620 10.059 C 246.411 10.247,245.916 10.400,245.520 10.400 C 245.124 10.400,244.800 10.580,244.800 10.800 C 244.800 11.020,244.440 11.200,244.000 11.200 C 243.560 11.200,243.200 11.380,243.200 11.600 C 243.200 11.820,242.919 12.000,242.576 12.000 C 242.233 12.000,242.064 12.180,242.200 12.400 C 242.336 12.620,242.077 12.800,241.624 12.800 C 241.171 12.800,240.800 12.980,240.800 13.200 C 240.800 13.420,240.575 13.600,240.300 13.600 C 239.614 13.601,237.552 15.419,237.874 15.740 C 238.017 15.883,237.809 16.000,237.413 16.000 C 236.640 16.000,231.523 20.989,231.904 21.371 C 232.030 21.497,231.823 21.600,231.443 21.600 C 231.063 21.600,230.851 21.760,230.972 21.955 C 231.093 22.150,230.923 22.532,230.596 22.804 C 230.268 23.076,230.000 23.506,230.000 23.761 C 230.000 24.015,229.640 24.483,229.200 24.800 C 228.760 25.117,228.400 25.697,228.400 26.088 C 228.400 26.480,228.220 26.800,228.000 26.800 C 227.780 26.800,227.600 27.160,227.600 27.600 C 227.600 28.040,227.420 28.400,227.200 28.400 C 226.980 28.400,226.800 28.683,226.800 29.029 C 226.800 29.966,225.789 30.800,224.652 30.800 C 224.099 30.800,223.536 30.980,223.400 31.200 C 223.264 31.420,221.903 31.600,220.376 31.600 C 218.792 31.600,217.600 31.428,217.600 31.200 C 217.600 30.938,209.457 30.800,193.971 30.800 C 168.996 30.800,169.200 30.815,169.200 29.029 C 169.200 28.683,169.020 28.400,168.800 28.400 C 168.580 28.400,168.400 28.080,168.400 27.688 C 168.400 27.297,168.040 26.717,167.600 26.400 C 167.160 26.083,166.800 25.518,166.800 25.145 C 166.800 24.772,166.665 24.407,166.500 24.333 C 166.335 24.260,165.930 23.728,165.600 23.151 C 164.353 20.972,160.907 17.119,159.203 16.000 C 158.701 15.670,157.873 14.995,157.363 14.500 C 156.853 14.005,156.198 13.600,155.906 13.600 C 155.615 13.600,155.117 13.240,154.800 12.800 C 154.483 12.360,153.903 12.000,153.512 12.000 C 153.120 12.000,152.799 11.865,152.797 11.700 C 152.793 11.341,150.856 10.400,150.120 10.400 C 149.834 10.400,149.600 10.248,149.600 10.062 C 149.600 8.600,135.657 6.851,129.300 7.515 M263.798 32.033 C 269.189 33.030,273.545 36.778,275.615 42.200 C 277.475 47.073,277.092 78.587,275.120 82.864 C 269.177 95.760,250.269 93.152,246.564 78.925 C 245.853 76.198,245.751 49.096,246.437 45.373 C 247.658 38.747,252.316 33.685,258.600 32.155 C 261.188 31.525,261.063 31.528,263.798 32.033 M315.200 33.800 C 315.200 34.133,315.556 34.400,316.000 34.400 C 316.444 34.400,316.800 34.133,316.800 33.800 C 316.800 33.467,316.444 33.200,316.000 33.200 C 315.556 33.200,315.200 33.467,315.200 33.800 M324.400 37.600 C 324.400 37.820,324.029 38.000,323.576 38.000 C 323.123 38.000,322.864 37.820,323.000 37.600 C 323.136 37.380,323.507 37.200,323.824 37.200 C 324.141 37.200,324.400 37.380,324.400 37.600 M67.600 40.629 C 67.600 40.927,66.525 42.000,66.225 42.000 C 66.098 42.000,66.218 41.640,66.493 41.200 C 66.962 40.449,67.600 40.120,67.600 40.629 M64.167 43.743 C 63.934 44.348,63.200 44.683,63.200 44.183 C 63.200 43.898,64.168 42.851,64.309 42.983 C 64.370 43.039,64.305 43.381,64.167 43.743 M334.000 43.393 C 334.000 43.916,335.946 46.011,336.140 45.697 C 336.244 45.529,336.120 45.123,335.865 44.796 C 335.209 43.955,334.000 43.046,334.000 43.393 M61.600 47.600 C 61.600 48.380,61.176 48.642,60.694 48.161 C 60.374 47.840,60.793 46.800,61.243 46.800 C 61.439 46.800,61.600 47.160,61.600 47.600 M278.040 50.200 C 278.028 51.834,278.115 52.090,278.513 51.597 C 278.781 51.265,279.405 51.053,279.900 51.125 C 280.507 51.213,280.800 51.051,280.800 50.628 C 280.800 50.236,280.448 50.000,279.861 50.000 C 279.283 50.000,278.756 49.654,278.488 49.100 C 278.113 48.322,278.052 48.471,278.040 50.200 M52.000 54.600 C 52.000 54.930,51.790 55.200,51.533 55.200 C 51.277 55.200,51.161 55.294,51.276 55.409 C 51.391 55.525,51.781 55.505,52.143 55.367 C 52.852 55.094,53.058 54.000,52.400 54.000 C 52.180 54.000,52.000 54.270,52.000 54.600 M57.080 56.000 C 58.133 56.000,58.400 56.162,58.400 56.800 C 58.400 57.460,58.133 57.600,56.880 57.600 C 56.044 57.600,55.162 57.798,54.920 58.040 C 54.259 58.701,53.850 57.027,54.415 55.972 C 54.751 55.345,54.993 55.233,55.317 55.557 C 55.561 55.801,56.354 56.000,57.080 56.000 M48.800 59.953 C 48.800 60.148,49.160 60.401,49.600 60.516 C 50.545 60.763,50.686 60.195,49.767 59.843 C 48.928 59.521,48.800 59.535,48.800 59.953 M348.000 61.600 C 348.000 61.820,348.180 62.000,348.400 62.000 C 348.620 62.000,348.800 62.450,348.800 63.000 C 348.800 63.550,348.967 64.000,349.172 64.000 C 349.402 64.000,349.402 63.503,349.172 62.703 C 348.967 61.989,348.800 61.359,348.800 61.303 C 348.800 61.246,348.620 61.200,348.400 61.200 C 348.180 61.200,348.000 61.380,348.000 61.600 M98.500 62.713 C 96.025 62.775,94.000 62.973,94.000 63.153 C 94.000 63.333,95.935 63.462,98.300 63.440 L 102.600 63.400 102.800 76.667 C 102.910 83.964,103.090 90.025,103.200 90.135 C 103.387 90.322,103.301 69.628,103.094 64.800 L 103.000 62.600 98.500 62.713 M47.200 63.200 C 47.200 63.420,47.695 63.587,48.300 63.572 C 49.275 63.547,49.309 63.505,48.600 63.200 C 47.507 62.731,47.200 62.731,47.200 63.200 M168.643 63.433 C 168.509 63.781,168.430 64.996,168.467 66.133 L 168.534 68.200 168.767 65.800 L 169.000 63.400 198.300 63.297 L 227.600 63.195 227.675 74.497 L 227.749 85.800 227.989 75.000 C 228.121 69.060,228.157 63.885,228.068 63.500 C 227.831 62.472,169.037 62.406,168.643 63.433 M293.289 75.500 L 293.377 88.200 293.589 76.000 C 293.705 69.290,293.946 63.575,294.124 63.300 C 294.334 62.975,294.228 62.800,293.824 62.800 C 293.270 62.800,293.210 64.226,293.289 75.500 M296.833 62.944 C 297.255 63.309,302.411 63.542,302.192 63.186 C 302.060 62.974,300.763 62.800,299.310 62.800 C 297.856 62.800,296.742 62.865,296.833 62.944 M90.800 64.000 C 90.800 64.475,91.495 64.475,92.600 64.000 C 93.270 63.712,93.189 63.652,92.100 63.628 C 91.385 63.613,90.800 63.780,90.800 64.000 M304.000 64.000 C 304.788 64.509,305.715 64.509,305.400 64.000 C 305.264 63.780,304.758 63.603,304.276 63.606 C 303.564 63.611,303.512 63.685,304.000 64.000 M88.284 64.675 C 88.509 65.262,88.658 65.277,89.799 64.832 C 90.488 64.563,90.424 64.494,89.341 64.335 C 88.416 64.200,88.136 64.290,88.284 64.675 M306.400 64.800 C 307.176 65.301,307.600 65.301,307.600 64.800 C 307.600 64.580,307.195 64.403,306.700 64.406 C 305.972 64.411,305.915 64.486,306.400 64.800 M84.400 66.997 C 82.970 67.960,81.170 69.426,80.400 70.256 C 79.072 71.688,79.661 71.453,81.395 69.860 C 82.614 68.740,86.702 66.000,87.154 66.000 C 87.374 66.000,87.664 65.820,87.800 65.600 C 88.338 64.730,86.872 65.332,84.400 66.997 M45.600 66.613 C 45.600 67.260,46.225 67.407,46.574 66.842 C 46.696 66.645,46.526 66.381,46.198 66.254 C 45.835 66.115,45.600 66.256,45.600 66.613 M311.835 67.668 C 313.136 68.585,315.076 70.205,316.146 71.268 C 317.217 72.330,318.200 73.200,318.331 73.200 C 318.463 73.200,317.677 72.283,316.585 71.163 C 314.744 69.273,310.415 66.000,309.757 66.000 C 309.599 66.000,310.534 66.750,311.835 67.668 M350.400 67.400 C 350.400 67.730,350.580 68.000,350.800 68.000 C 351.020 68.000,351.200 67.730,351.200 67.400 C 351.200 67.070,351.020 66.800,350.800 66.800 C 350.580 66.800,350.400 67.070,350.400 67.400 M44.652 70.500 C 44.514 71.655,44.287 73.635,44.145 74.900 C 44.004 76.165,43.734 77.200,43.544 77.200 C 43.062 77.200,43.112 80.298,43.600 80.600 C 43.820 80.736,44.011 80.522,44.025 80.124 C 44.048 79.457,44.420 76.458,45.034 72.000 C 45.170 71.010,45.444 70.029,45.641 69.820 C 46.184 69.245,46.071 68.400,45.451 68.400 C 45.087 68.400,44.818 69.108,44.652 70.500 M77.300 73.500 C 76.585 74.310,76.000 75.148,76.000 75.362 C 76.000 75.576,76.390 75.312,76.867 74.775 C 77.343 74.239,78.095 73.395,78.536 72.900 C 78.978 72.405,79.173 72.006,78.970 72.014 C 78.766 72.021,78.015 72.690,77.300 73.500 M73.600 79.920 C 73.600 80.316,73.449 80.811,73.264 81.020 C 72.742 81.612,71.888 85.750,72.109 86.620 C 72.239 87.132,72.323 86.967,72.354 86.138 C 72.379 85.444,72.832 83.599,73.360 82.038 C 73.888 80.477,74.158 79.200,73.960 79.200 C 73.762 79.200,73.600 79.524,73.600 79.920 M324.028 83.876 C 324.118 84.915,324.744 85.796,324.772 84.924 C 324.787 84.442,324.620 83.936,324.400 83.800 C 324.180 83.664,324.013 83.698,324.028 83.876 M168.463 85.000 C 168.423 85.660,168.304 86.920,168.197 87.800 L 168.003 89.400 168.423 88.060 C 168.654 87.323,168.774 86.063,168.689 85.260 C 168.552 83.966,168.526 83.937,168.463 85.000 M228.093 88.000 C 228.093 88.770,228.175 89.085,228.276 88.700 C 228.376 88.315,228.376 87.685,228.276 87.300 C 228.175 86.915,228.093 87.230,228.093 88.000 M325.100 174.538 C 325.156 222.752,325.247 274.260,325.303 289.000 C 325.360 303.740,325.447 264.500,325.497 201.800 C 325.547 139.100,325.456 87.592,325.294 87.338 C 325.132 87.084,325.045 126.324,325.100 174.538 M71.797 197.200 C 71.797 257.590,71.843 282.295,71.900 252.100 C 71.957 221.905,71.957 172.495,71.900 142.300 C 71.843 112.105,71.797 136.810,71.797 197.200 M103.612 91.600 C 103.612 91.930,103.787 92.470,104.000 92.800 C 104.345 93.333,104.388 93.333,104.388 92.800 C 104.388 92.470,104.213 91.930,104.000 91.600 C 103.655 91.067,103.612 91.067,103.612 91.600 M231.000 96.800 C 231.341 97.460,231.711 98.000,231.821 98.000 C 231.931 98.000,231.741 97.460,231.400 96.800 C 231.059 96.140,230.689 95.600,230.579 95.600 C 230.469 95.600,230.659 96.140,231.000 96.800 M289.800 98.000 C 289.459 98.660,289.269 99.200,289.379 99.200 C 289.489 99.200,289.859 98.660,290.200 98.000 C 290.541 97.340,290.731 96.800,290.621 96.800 C 290.511 96.800,290.141 97.340,289.800 98.000 M163.385 99.300 C 162.768 100.235,162.520 100.789,162.832 100.531 C 163.433 100.034,164.964 97.600,164.676 97.600 C 164.583 97.600,164.002 98.365,163.385 99.300 M287.375 101.468 C 286.759 102.276,286.459 102.811,286.709 102.656 C 287.221 102.340,288.953 100.000,288.675 100.000 C 288.576 100.000,287.991 100.661,287.375 101.468 M159.689 103.590 C 158.528 104.855,156.602 106.590,155.408 107.445 C 154.215 108.300,153.230 109.147,153.219 109.327 C 153.209 109.507,153.759 109.256,154.442 108.770 C 156.160 107.547,162.692 101.224,162.200 101.260 C 161.980 101.277,160.850 102.325,159.689 103.590 M109.600 102.655 C 109.600 102.868,110.275 103.663,111.100 104.422 L 112.600 105.800 111.200 104.204 C 110.430 103.327,109.755 102.532,109.700 102.438 C 109.645 102.344,109.600 102.441,109.600 102.655 M284.706 104.611 C 283.884 105.375,283.354 106.000,283.527 106.000 C 283.701 106.000,284.454 105.370,285.200 104.600 C 286.941 102.803,286.643 102.810,284.706 104.611 M125.600 113.182 C 125.930 113.405,126.545 113.591,126.967 113.594 C 127.990 113.602,127.671 113.373,126.200 113.044 C 125.324 112.848,125.162 112.885,125.600 113.182 M252.000 113.182 C 252.330 113.405,252.945 113.591,253.367 113.594 C 254.390 113.602,254.071 113.373,252.600 113.044 C 251.724 112.848,251.562 112.885,252.000 113.182 M269.400 113.200 C 268.896 113.417,268.822 113.544,269.200 113.544 C 269.530 113.544,270.160 113.389,270.600 113.200 C 271.104 112.983,271.178 112.856,270.800 112.856 C 270.470 112.856,269.840 113.011,269.400 113.200 M132.700 114.296 C 134.075 114.374,136.325 114.374,137.700 114.296 C 139.075 114.218,137.950 114.154,135.200 114.154 C 132.450 114.154,131.325 114.218,132.700 114.296 M257.100 114.282 C 257.595 114.378,258.405 114.378,258.900 114.282 C 259.395 114.187,258.990 114.109,258.000 114.109 C 257.010 114.109,256.605 114.187,257.100 114.282 M260.700 114.282 C 261.195 114.378,262.005 114.378,262.500 114.282 C 262.995 114.187,262.590 114.109,261.600 114.109 C 260.610 114.109,260.205 114.187,260.700 114.282 M264.100 114.276 C 264.485 114.376,265.115 114.376,265.500 114.276 C 265.885 114.175,265.570 114.093,264.800 114.093 C 264.030 114.093,263.715 114.175,264.100 114.276 M126.912 133.095 C 127.964 133.177,129.584 133.176,130.512 133.092 C 131.440 133.008,130.580 132.941,128.600 132.942 C 126.620 132.943,125.860 133.012,126.912 133.095 M266.512 133.095 C 267.564 133.177,269.184 133.176,270.112 133.092 C 271.040 133.008,270.180 132.941,268.200 132.942 C 266.220 132.943,265.460 133.012,266.512 133.095 M135.200 133.600 C 136.568 134.038,137.619 134.038,136.600 133.600 C 136.160 133.411,135.440 133.262,135.000 133.268 C 134.357 133.277,134.396 133.343,135.200 133.600 M261.000 133.600 C 260.496 133.817,260.422 133.944,260.800 133.944 C 261.130 133.944,261.760 133.789,262.200 133.600 C 262.704 133.383,262.778 133.256,262.400 133.256 C 262.070 133.256,261.440 133.411,261.000 133.600 M274.800 133.600 C 276.168 134.038,277.219 134.038,276.200 133.600 C 275.760 133.411,275.040 133.262,274.600 133.268 C 273.957 133.277,273.996 133.343,274.800 133.600 M248.693 139.014 C 247.872 139.572,247.200 140.115,247.200 140.220 C 247.200 140.325,247.920 139.935,248.800 139.353 C 250.197 138.428,250.670 138.000,250.293 138.000 C 250.234 138.000,249.514 138.456,248.693 139.014 M244.400 142.600 C 243.428 143.590,242.723 144.400,242.833 144.400 C 242.943 144.400,243.828 143.590,244.800 142.600 C 245.772 141.610,246.477 140.800,246.367 140.800 C 246.257 140.800,245.372 141.610,244.400 142.600 M290.041 140.900 C 290.137 140.955,291.112 141.810,292.207 142.800 L 294.200 144.600 292.417 142.700 C 291.436 141.655,290.461 140.800,290.250 140.800 C 290.039 140.800,289.945 140.845,290.041 140.900 M115.000 142.000 C 114.496 142.217,114.422 142.344,114.800 142.344 C 115.130 142.344,115.760 142.189,116.200 142.000 C 116.704 141.783,116.778 141.656,116.400 141.656 C 116.070 141.656,115.440 141.811,115.000 142.000 M254.000 142.018 C 253.562 142.315,253.724 142.352,254.600 142.156 C 256.071 141.827,256.390 141.598,255.367 141.606 C 254.945 141.609,254.330 141.795,254.000 142.018 M112.113 143.564 C 110.602 144.659,108.800 146.757,108.800 147.422 C 108.800 147.586,109.323 146.998,109.962 146.116 C 110.601 145.234,111.771 144.113,112.562 143.624 C 113.831 142.839,114.297 142.400,113.860 142.400 C 113.783 142.400,112.997 142.924,112.113 143.564 M124.600 143.452 C 124.820 143.645,125.720 144.432,126.599 145.201 L 128.198 146.600 126.999 145.266 C 126.340 144.532,125.440 143.745,125.000 143.517 C 124.560 143.289,124.380 143.260,124.600 143.452 M264.493 144.041 C 265.095 144.490,266.054 145.429,266.626 146.128 C 267.197 146.828,267.477 147.020,267.248 146.555 C 266.808 145.663,264.173 143.191,263.686 143.213 C 263.529 143.220,263.892 143.592,264.493 144.041 M101.895 145.700 C 100.109 147.933,98.800 149.849,98.800 150.228 C 98.800 150.396,99.539 149.468,100.443 148.166 C 101.346 146.865,102.458 145.395,102.913 144.900 C 103.367 144.405,103.630 144.000,103.497 144.000 C 103.363 144.000,102.642 144.765,101.895 145.700 M296.214 147.600 C 297.941 150.206,298.335 150.645,297.472 149.000 C 297.126 148.340,296.373 147.260,295.799 146.600 C 295.131 145.831,295.280 146.190,296.214 147.600 M240.553 147.300 C 239.176 149.636,239.086 149.835,239.787 149.000 C 240.600 148.032,241.300 146.800,241.038 146.800 C 240.933 146.800,240.715 147.025,240.553 147.300 M268.924 153.000 C 268.926 154.320,269.001 154.812,269.090 154.093 C 269.179 153.374,269.177 152.294,269.086 151.693 C 268.995 151.092,268.922 151.680,268.924 153.000 M107.206 152.633 C 107.209 153.495,107.370 154.449,107.563 154.754 C 107.778 155.093,107.832 154.549,107.704 153.354 C 107.442 150.917,107.198 150.564,107.206 152.633 M130.120 153.200 C 130.120 154.410,130.195 154.905,130.287 154.300 C 130.378 153.695,130.378 152.705,130.287 152.100 C 130.195 151.495,130.120 151.990,130.120 153.200 M246.509 152.800 C 246.509 153.790,246.587 154.195,246.682 153.700 C 246.778 153.205,246.778 152.395,246.682 151.900 C 246.587 151.405,246.509 151.810,246.509 152.800 M298.828 152.200 C 298.828 152.420,299.086 153.050,299.400 153.600 C 299.714 154.150,299.972 154.420,299.972 154.200 C 299.972 153.980,299.714 153.350,299.400 152.800 C 299.086 152.250,298.828 151.980,298.828 152.200 M110.800 160.600 C 111.546 161.370,112.247 162.000,112.357 162.000 C 112.467 162.000,111.946 161.370,111.200 160.600 C 110.454 159.830,109.753 159.200,109.643 159.200 C 109.533 159.200,110.054 159.830,110.800 160.600 M126.975 160.900 L 125.800 162.200 127.100 161.025 C 128.312 159.930,128.584 159.600,128.275 159.600 C 128.206 159.600,127.621 160.185,126.975 160.900 M161.755 166.200 C 161.756 169.060,161.820 170.178,161.897 168.683 C 161.974 167.189,161.974 164.849,161.896 163.483 C 161.818 162.118,161.755 163.340,161.755 166.200 M301.753 166.200 C 301.753 168.840,301.818 169.868,301.897 168.484 C 301.975 167.101,301.974 164.941,301.895 163.684 C 301.816 162.428,301.752 163.560,301.753 166.200 M94.924 165.800 C 94.926 167.120,95.001 167.612,95.090 166.893 C 95.179 166.174,95.177 165.094,95.086 164.493 C 94.995 163.892,94.922 164.480,94.924 165.800 M256.046 164.037 C 256.565 164.365,259.929 164.572,259.567 164.253 C 259.475 164.172,258.521 164.012,257.446 163.896 C 256.251 163.768,255.707 163.822,256.046 164.037 M118.300 164.282 C 118.795 164.378,119.605 164.378,120.100 164.282 C 120.595 164.187,120.190 164.109,119.200 164.109 C 118.210 164.109,117.805 164.187,118.300 164.282 M234.928 166.800 C 234.928 168.230,235.001 168.815,235.089 168.100 C 235.178 167.385,235.178 166.215,235.089 165.500 C 235.001 164.785,234.928 165.370,234.928 166.800 M235.458 172.400 C 235.775 174.125,236.002 174.451,235.994 173.167 C 235.991 172.635,235.811 171.930,235.594 171.600 C 235.318 171.178,235.277 171.415,235.458 172.400 M298.282 181.011 C 297.692 182.215,297.294 183.200,297.398 183.200 C 297.667 183.200,299.684 179.151,299.505 178.971 C 299.423 178.889,298.873 179.807,298.282 181.011 M98.000 180.549 C 98.000 180.981,99.589 184.000,99.816 184.000 C 99.926 184.000,99.630 183.235,99.159 182.300 C 98.232 180.461,98.000 180.111,98.000 180.549 M102.000 187.325 C 102.000 187.394,102.585 187.979,103.300 188.625 L 104.600 189.800 103.425 188.500 C 102.330 187.288,102.000 187.016,102.000 187.325 M293.375 188.500 L 292.200 189.800 293.500 188.625 C 294.215 187.979,294.800 187.394,294.800 187.325 C 294.800 187.016,294.470 187.288,293.375 188.500 M244.800 189.800 C 245.995 191.010,247.063 192.000,247.173 192.000 C 247.283 192.000,246.395 191.010,245.200 189.800 C 244.005 188.590,242.937 187.600,242.827 187.600 C 242.717 187.600,243.605 188.590,244.800 189.800 M151.775 189.700 L 150.600 191.000 151.900 189.825 C 153.112 188.730,153.384 188.400,153.075 188.400 C 153.006 188.400,152.421 188.985,151.775 189.700 M290.378 191.500 L 289.000 193.000 290.500 191.622 C 291.896 190.338,292.184 190.000,291.878 190.000 C 291.812 190.000,291.137 190.675,290.378 191.500 M282.800 196.400 C 281.590 197.039,280.741 197.571,280.913 197.581 C 281.338 197.607,285.200 195.636,285.200 195.393 C 285.200 195.126,285.255 195.103,282.800 196.400 M135.200 198.800 C 134.396 199.057,134.357 199.123,135.000 199.132 C 135.440 199.138,136.160 198.989,136.600 198.800 C 137.619 198.362,136.568 198.362,135.200 198.800 M173.100 198.682 C 173.595 198.778,174.405 198.778,174.900 198.682 C 175.395 198.587,174.990 198.509,174.000 198.509 C 173.010 198.509,172.605 198.587,173.100 198.682 M222.100 198.676 C 222.485 198.776,223.115 198.776,223.500 198.676 C 223.885 198.575,223.570 198.493,222.800 198.493 C 222.030 198.493,221.715 198.575,222.100 198.676 M126.912 199.495 C 127.964 199.577,129.584 199.576,130.512 199.492 C 131.440 199.408,130.580 199.341,128.600 199.342 C 126.620 199.343,125.860 199.412,126.912 199.495 M169.729 200.100 C 169.284 200.595,168.787 201.270,168.625 201.600 C 168.463 201.930,168.687 201.761,169.123 201.225 C 169.559 200.689,170.239 200.014,170.635 199.725 C 171.030 199.436,171.170 199.200,170.946 199.200 C 170.722 199.200,170.175 199.605,169.729 200.100 M266.711 199.893 C 267.651 199.978,269.091 199.977,269.911 199.891 C 270.730 199.805,269.960 199.736,268.200 199.737 C 266.440 199.739,265.770 199.809,266.711 199.893 M228.931 205.400 C 228.933 206.940,229.005 207.521,229.092 206.691 C 229.179 205.861,229.177 204.601,229.089 203.891 C 229.000 203.181,228.929 203.860,228.931 205.400 M228.229 209.829 C 228.081 210.415,228.038 210.972,228.132 211.066 C 228.227 211.160,228.424 210.758,228.571 210.171 C 228.719 209.585,228.762 209.028,228.668 208.934 C 228.573 208.840,228.376 209.242,228.229 209.829 M184.400 209.325 C 184.400 209.394,184.985 209.979,185.700 210.625 L 187.000 211.800 185.825 210.500 C 184.730 209.288,184.400 209.016,184.400 209.325 M194.500 215.076 C 194.885 215.176,195.515 215.176,195.900 215.076 C 196.285 214.975,195.970 214.893,195.200 214.893 C 194.430 214.893,194.115 214.975,194.500 215.076 M197.905 215.483 C 198.402 215.579,199.122 215.575,199.505 215.475 C 199.887 215.375,199.480 215.296,198.600 215.301 C 197.720 215.305,197.407 215.387,197.905 215.483 M174.600 220.400 C 175.683 221.500,176.660 222.400,176.770 222.400 C 176.880 222.400,176.083 221.500,175.000 220.400 C 173.917 219.300,172.940 218.400,172.830 218.400 C 172.720 218.400,173.517 219.300,174.600 220.400 M221.535 220.608 C 220.290 221.814,219.396 222.800,219.549 222.800 C 219.702 222.800,220.805 221.810,222.000 220.600 C 224.809 217.756,224.476 217.762,221.535 220.608 M202.500 229.876 C 202.885 229.976,203.515 229.976,203.900 229.876 C 204.285 229.775,203.970 229.693,203.200 229.693 C 202.430 229.693,202.115 229.775,202.500 229.876 M72.167 324.400 C 72.167 328.690,72.226 330.445,72.298 328.300 C 72.370 326.155,72.370 322.645,72.298 320.500 C 72.226 318.355,72.167 320.110,72.167 324.400 M324.564 327.000 C 324.563 330.740,324.623 332.324,324.697 330.520 C 324.771 328.715,324.772 325.655,324.698 323.720 C 324.625 321.784,324.564 323.260,324.564 327.000 M72.468 334.800 C 72.488 335.839,73.118 337.546,73.132 336.600 C 73.138 336.160,72.989 335.440,72.800 335.000 C 72.589 334.510,72.461 334.432,72.468 334.800 M319.840 345.105 C 318.982 346.324,318.485 347.195,318.735 347.040 C 319.291 346.696,321.732 343.194,321.539 343.016 C 321.462 342.946,320.698 343.886,319.840 345.105 M76.215 344.700 C 77.556 346.785,78.000 347.377,78.000 347.080 C 78.000 346.696,75.955 343.600,75.701 343.600 C 75.595 343.600,75.826 344.095,76.215 344.700 M79.600 348.980 C 81.932 351.595,88.000 356.279,88.000 355.465 C 88.000 355.365,87.055 354.686,85.900 353.956 C 84.745 353.225,82.540 351.454,81.000 350.019 C 79.460 348.585,78.830 348.117,79.600 348.980 M313.400 352.032 C 311.027 353.826,310.708 354.332,312.933 352.772 C 314.614 351.594,315.529 350.775,315.124 350.811 C 315.056 350.817,314.280 351.367,313.400 352.032 M308.300 355.429 C 306.805 356.240,306.896 356.578,308.400 355.800 C 309.060 355.459,309.600 355.094,309.600 354.990 C 309.600 354.732,309.557 354.747,308.300 355.429 M90.000 356.595 C 90.000 356.861,92.790 358.007,93.349 357.970 C 93.597 357.954,93.080 357.607,92.200 357.200 C 90.509 356.417,90.000 356.277,90.000 356.595 M94.600 358.400 C 95.040 358.589,95.760 358.738,96.200 358.732 C 96.843 358.723,96.804 358.657,96.000 358.400 C 94.632 357.962,93.581 357.962,94.600 358.400 M300.400 358.400 C 299.596 358.657,299.557 358.723,300.200 358.732 C 300.640 358.738,301.360 358.589,301.800 358.400 C 302.819 357.962,301.768 357.962,300.400 358.400 M101.800 359.249 C 107.736 359.585,294.068 359.600,296.600 359.265 C 297.700 359.119,253.330 359.000,198.000 359.000 C 142.670 359.000,99.380 359.112,101.800 359.249 M342.500 365.823 C 341.911 366.463,341.862 366.800,342.357 366.800 C 342.698 366.800,343.337 365.596,343.109 365.383 C 343.049 365.327,342.775 365.525,342.500 365.823 M56.202 369.202 C 56.602 369.644,57.011 369.922,57.112 369.821 C 57.328 369.605,56.188 368.400,55.767 368.400 C 55.607 368.400,55.803 368.761,56.202 369.202 M338.000 371.200 C 337.493 371.640,337.272 372.000,337.510 372.000 C 337.927 372.000,339.200 370.924,339.200 370.571 C 339.200 370.253,338.926 370.397,338.000 371.200 M302.800 389.200 C 302.267 389.545,302.267 389.588,302.800 389.588 C 303.130 389.588,303.670 389.413,304.000 389.200 C 304.533 388.855,304.533 388.812,304.000 388.812 C 303.670 388.812,303.130 388.987,302.800 389.200 " stroke="none" fill="#437895" fill-rule="evenodd"></path><path id="path4" d="M126.200 8.000 C 126.336 8.220,126.797 8.400,127.224 8.400 C 127.651 8.400,128.000 8.220,128.000 8.000 C 128.000 7.780,127.539 7.600,126.976 7.600 C 126.396 7.600,126.060 7.773,126.200 8.000 M105.402 21.598 C 105.003 22.039,104.807 22.400,104.967 22.400 C 105.388 22.400,106.528 21.195,106.312 20.979 C 106.211 20.878,105.802 21.156,105.402 21.598 M131.000 32.400 C 129.981 32.838,131.032 32.838,132.400 32.400 C 133.204 32.143,133.243 32.077,132.600 32.068 C 132.160 32.062,131.440 32.211,131.000 32.400 M137.600 32.433 C 142.024 33.742,145.392 36.432,147.575 40.400 C 148.241 41.610,148.789 42.392,148.793 42.138 C 148.842 38.993,141.993 32.839,137.778 32.242 L 136.200 32.018 137.600 32.433 M265.600 32.893 C 268.607 34.132,270.064 34.966,270.963 35.959 C 271.382 36.422,271.900 36.800,272.116 36.800 C 273.747 36.800,267.118 32.672,264.800 32.245 C 263.704 32.042,263.878 32.183,265.600 32.893 M255.000 33.440 C 252.830 34.546,250.800 36.308,249.516 38.200 C 249.068 38.860,249.447 38.558,250.358 37.528 C 252.129 35.527,253.988 34.211,256.584 33.122 C 257.473 32.750,257.930 32.439,257.600 32.433 C 257.270 32.426,256.100 32.879,255.000 33.440 M127.381 33.966 C 125.038 35.309,122.796 37.657,121.582 40.035 C 119.656 43.810,119.603 44.407,119.694 61.400 L 119.779 77.400 120.001 60.800 C 120.139 50.416,120.386 43.746,120.658 42.989 C 122.112 38.943,124.926 35.585,128.360 33.796 C 129.372 33.269,130.020 32.831,129.800 32.822 C 129.580 32.814,128.491 33.329,127.381 33.966 M273.493 38.797 C 274.068 39.676,274.623 40.311,274.725 40.208 C 274.907 40.026,272.913 37.200,272.603 37.200 C 272.517 37.200,272.918 37.919,273.493 38.797 M246.182 62.200 C 246.182 70.780,246.235 74.233,246.300 69.874 C 246.364 65.514,246.364 58.494,246.299 54.274 C 246.235 50.053,246.182 53.620,246.182 62.200 M276.509 48.400 C 276.509 49.390,276.587 49.795,276.682 49.300 C 276.778 48.805,276.778 47.995,276.682 47.500 C 276.587 47.005,276.509 47.410,276.509 48.400 M150.148 51.200 C 150.148 53.510,150.214 54.455,150.295 53.300 C 150.376 52.145,150.376 50.255,150.295 49.100 C 150.214 47.945,150.148 48.890,150.148 51.200 M276.555 61.800 C 276.556 64.660,276.620 65.778,276.697 64.283 C 276.774 62.789,276.774 60.449,276.696 59.083 C 276.618 57.718,276.555 58.940,276.555 61.800 M294.252 63.116 C 294.144 63.290,294.673 63.361,295.428 63.273 C 296.183 63.185,296.800 63.042,296.800 62.956 C 296.800 62.655,294.445 62.803,294.252 63.116 M99.294 63.492 L 102.388 63.632 102.503 75.216 L 102.618 86.800 102.609 75.100 L 102.600 63.400 99.400 63.376 L 96.200 63.352 99.294 63.492 M169.067 63.467 C 168.920 63.613,168.842 68.788,168.893 74.967 L 168.987 86.200 169.100 75.233 C 169.175 67.968,169.362 64.086,169.656 63.733 C 170.099 63.199,169.572 62.961,169.067 63.467 M205.300 63.500 L 227.200 63.607 227.223 74.303 C 227.236 80.187,227.410 85.720,227.611 86.600 C 227.972 88.183,227.973 88.179,227.788 86.244 C 227.684 85.168,227.600 79.543,227.600 73.744 L 227.600 63.200 205.500 63.297 L 183.400 63.393 205.300 63.500 M298.900 63.476 C 299.285 63.576,299.915 63.576,300.300 63.476 C 300.685 63.375,300.370 63.293,299.600 63.293 C 298.830 63.293,298.515 63.375,298.900 63.476 M93.700 63.876 C 94.085 63.976,94.715 63.976,95.100 63.876 C 95.485 63.775,95.170 63.693,94.400 63.693 C 93.630 63.693,93.315 63.775,93.700 63.876 M301.233 63.743 C 301.325 63.822,302.120 63.997,303.000 64.132 C 304.090 64.299,304.409 64.255,304.000 63.995 C 303.453 63.646,300.845 63.409,301.233 63.743 M293.777 75.600 C 293.777 82.090,293.832 84.745,293.899 81.500 C 293.966 78.255,293.966 72.945,293.899 69.700 C 293.832 66.455,293.777 69.110,293.777 75.600 M89.329 64.930 C 87.230 65.706,87.319 66.046,89.436 65.340 C 90.516 64.979,91.475 64.620,91.567 64.542 C 91.917 64.243,90.544 64.481,89.329 64.930 M309.150 66.399 C 310.332 67.051,311.581 67.813,311.926 68.092 C 312.433 68.503,312.495 68.503,312.248 68.092 C 311.902 67.517,308.013 65.206,307.400 65.211 C 307.180 65.213,307.967 65.748,309.150 66.399 M85.600 66.836 C 84.936 67.379,84.869 67.515,85.400 67.240 C 86.705 66.566,87.428 66.012,87.000 66.015 C 86.780 66.017,86.150 66.386,85.600 66.836 M83.576 68.113 C 81.290 69.898,80.697 70.429,80.839 70.565 C 80.928 70.650,81.810 70.018,82.800 69.161 C 84.470 67.715,84.997 67.003,83.576 68.113 M316.000 71.400 C 316.746 72.170,317.447 72.800,317.557 72.800 C 317.667 72.800,317.146 72.170,316.400 71.400 C 315.654 70.630,314.953 70.000,314.843 70.000 C 314.733 70.000,315.254 70.630,316.000 71.400 M44.267 70.667 C 44.120 70.813,44.018 71.578,44.040 72.367 L 44.080 73.800 44.446 72.240 C 44.815 70.668,44.759 70.175,44.267 70.667 M78.783 72.500 C 78.040 73.435,77.748 73.946,78.135 73.636 C 78.863 73.051,80.577 70.800,80.294 70.800 C 80.206 70.800,79.526 71.565,78.783 72.500 M318.800 74.121 C 318.800 74.292,319.430 75.367,320.200 76.510 C 320.970 77.654,321.600 78.450,321.600 78.279 C 321.600 78.108,320.970 77.033,320.200 75.890 C 319.430 74.746,318.800 73.950,318.800 74.121 M75.850 76.500 C 75.257 77.655,75.003 78.263,75.286 77.850 C 76.981 75.378,77.538 74.400,77.252 74.400 C 77.073 74.400,76.442 75.345,75.850 76.500 M43.200 76.200 C 43.200 76.750,43.380 77.200,43.600 77.200 C 43.820 77.200,44.000 76.750,44.000 76.200 C 44.000 75.650,43.820 75.200,43.600 75.200 C 43.380 75.200,43.200 75.650,43.200 76.200 M276.093 78.400 C 276.093 79.170,276.175 79.485,276.276 79.100 C 276.376 78.715,276.376 78.085,276.276 77.700 C 276.175 77.315,276.093 77.630,276.093 78.400 M72.629 84.229 C 72.481 84.815,72.451 85.384,72.561 85.494 C 72.671 85.604,72.881 85.215,73.029 84.629 C 73.176 84.042,73.206 83.473,73.096 83.363 C 72.986 83.253,72.776 83.642,72.629 84.229 M324.476 86.400 C 324.467 86.950,324.603 88.210,324.780 89.200 C 325.020 90.550,325.107 90.700,325.127 89.800 C 325.142 89.140,325.005 87.880,324.823 87.000 C 324.616 85.998,324.486 85.774,324.476 86.400 M72.197 202.000 C 72.197 265.250,72.243 291.125,72.300 259.500 C 72.356 227.875,72.356 176.125,72.300 144.500 C 72.243 112.875,72.197 138.750,72.197 202.000 M168.250 88.850 C 167.917 90.517,168.240 90.840,168.600 89.200 C 168.752 88.509,168.793 87.859,168.691 87.758 C 168.589 87.656,168.391 88.147,168.250 88.850 M293.293 89.200 C 293.293 89.970,293.375 90.285,293.476 89.900 C 293.576 89.515,293.576 88.885,293.476 88.500 C 293.375 88.115,293.293 88.430,293.293 89.200 M102.856 89.600 C 102.856 89.930,103.011 90.560,103.200 91.000 C 103.417 91.504,103.544 91.578,103.544 91.200 C 103.544 90.870,103.389 90.240,103.200 89.800 C 102.983 89.296,102.856 89.222,102.856 89.600 M228.022 89.629 C 227.996 90.367,229.226 94.107,229.428 93.906 C 229.503 93.830,229.223 92.695,228.804 91.384 C 228.386 90.073,228.033 89.283,228.022 89.629 M167.262 92.100 C 167.056 92.815,166.766 93.760,166.618 94.200 C 166.451 94.696,166.566 94.619,166.919 94.000 C 167.534 92.922,168.135 90.800,167.826 90.800 C 167.723 90.800,167.469 91.385,167.262 92.100 M260.300 91.089 C 261.015 91.178,262.185 91.178,262.900 91.089 C 263.615 91.001,263.030 90.928,261.600 90.928 C 260.170 90.928,259.585 91.001,260.300 91.089 M292.629 91.829 C 292.481 92.415,292.438 92.972,292.532 93.066 C 292.627 93.160,292.824 92.758,292.971 92.171 C 293.119 91.585,293.162 91.028,293.068 90.934 C 292.973 90.840,292.776 91.242,292.629 91.829 M133.905 91.483 C 134.402 91.579,135.122 91.575,135.505 91.475 C 135.887 91.375,135.480 91.296,134.600 91.301 C 133.720 91.305,133.407 91.387,133.905 91.483 M291.667 94.780 C 291.433 95.451,291.327 96.000,291.431 96.000 C 291.701 96.000,292.456 93.922,292.257 93.724 C 292.167 93.633,291.901 94.108,291.667 94.780 M229.600 94.553 C 229.600 94.982,230.790 97.200,231.021 97.200 C 231.131 97.200,230.923 96.615,230.559 95.900 C 229.817 94.440,229.600 94.136,229.600 94.553 M231.644 98.500 C 233.175 101.422,240.926 109.200,242.306 109.200 C 242.600 109.200,242.475 109.090,239.800 106.990 C 236.956 104.758,234.586 102.268,232.924 99.765 C 231.445 97.537,230.810 96.910,231.644 98.500 M106.573 99.000 C 108.039 101.445,109.008 102.795,109.299 102.797 C 109.464 102.799,108.937 101.855,108.129 100.700 C 106.389 98.215,105.557 97.306,106.573 99.000 M288.800 100.000 C 288.330 100.660,288.036 101.200,288.146 101.200 C 288.256 101.200,288.730 100.660,289.200 100.000 C 289.670 99.340,289.964 98.800,289.854 98.800 C 289.744 98.800,289.270 99.340,288.800 100.000 M160.223 103.524 C 157.344 106.675,157.281 106.776,159.554 104.600 C 161.682 102.563,163.958 99.942,163.527 100.024 C 163.457 100.038,161.971 101.613,160.223 103.524 M285.171 104.375 C 283.726 105.872,281.521 107.776,280.271 108.605 C 277.841 110.219,277.195 110.916,279.236 109.723 C 281.280 108.527,285.360 105.018,286.757 103.255 C 288.567 100.970,288.228 101.208,285.171 104.375 M113.269 106.676 C 115.513 108.489,115.917 108.675,114.218 107.112 C 113.328 106.294,112.451 105.619,112.269 105.612 C 112.087 105.605,112.537 106.084,113.269 106.676 M152.711 109.760 C 150.571 111.032,150.311 111.444,152.273 110.455 C 153.193 109.991,154.059 109.429,154.196 109.206 C 154.514 108.693,154.498 108.699,152.711 109.760 M127.800 114.000 C 128.240 114.189,129.050 114.338,129.600 114.332 L 130.600 114.320 129.600 114.000 C 129.050 113.824,128.240 113.674,127.800 113.668 L 127.000 113.656 127.800 114.000 M141.000 114.000 C 139.922 114.274,139.902 114.306,140.800 114.313 C 141.350 114.317,142.250 114.176,142.800 114.000 C 144.144 113.569,142.692 113.569,141.000 114.000 M254.200 114.000 C 254.640 114.189,255.360 114.338,255.800 114.332 C 256.443 114.323,256.404 114.257,255.600 114.000 C 254.232 113.562,253.181 113.562,254.200 114.000 M266.800 114.000 C 265.456 114.431,266.908 114.431,268.600 114.000 C 269.678 113.726,269.698 113.694,268.800 113.687 C 268.250 113.683,267.350 113.824,266.800 114.000 M259.700 114.691 C 260.525 114.778,261.875 114.778,262.700 114.691 C 263.525 114.605,262.850 114.534,261.200 114.534 C 259.550 114.534,258.875 114.605,259.700 114.691 M127.111 132.693 C 128.051 132.778,129.491 132.777,130.311 132.691 C 131.130 132.605,130.360 132.536,128.600 132.537 C 126.840 132.539,126.170 132.609,127.111 132.693 M263.400 132.798 C 262.520 132.955,263.870 132.994,266.400 132.886 C 268.930 132.777,271.075 132.624,271.167 132.544 C 271.457 132.293,265.069 132.501,263.400 132.798 M123.105 133.083 C 123.602 133.179,124.322 133.175,124.705 133.075 C 125.087 132.975,124.680 132.896,123.800 132.901 C 122.920 132.905,122.607 132.987,123.105 133.083 M132.705 133.083 C 133.202 133.179,133.922 133.175,134.305 133.075 C 134.687 132.975,134.280 132.896,133.400 132.901 C 132.520 132.905,132.207 132.987,132.705 133.083 M272.505 133.087 C 273.114 133.179,274.014 133.177,274.505 133.082 C 274.997 132.987,274.500 132.911,273.400 132.914 C 272.300 132.917,271.897 132.995,272.505 133.087 M119.600 133.600 C 118.808 133.854,118.767 133.920,119.400 133.920 C 119.840 133.920,120.650 133.776,121.200 133.600 C 121.992 133.346,122.033 133.280,121.400 133.280 C 120.960 133.280,120.150 133.424,119.600 133.600 M259.600 133.600 C 258.796 133.857,258.757 133.923,259.400 133.932 C 259.840 133.938,260.560 133.789,261.000 133.600 C 262.019 133.162,260.968 133.162,259.600 133.600 M256.270 134.581 C 255.429 134.881,254.619 135.261,254.470 135.427 C 254.322 135.592,254.560 135.589,255.000 135.420 C 255.440 135.251,256.385 134.944,257.100 134.738 C 257.815 134.531,258.400 134.281,258.400 134.181 C 258.400 133.901,257.929 133.989,256.270 134.581 M278.800 134.117 C 279.107 134.449,283.200 136.014,283.200 135.800 C 283.200 135.594,281.113 134.675,279.565 134.198 C 279.034 134.034,278.690 133.998,278.800 134.117 M140.400 134.685 C 140.730 134.807,141.706 135.242,142.569 135.651 C 143.433 136.060,144.205 136.329,144.285 136.249 C 144.497 136.036,140.900 134.394,140.304 134.432 C 139.991 134.451,140.027 134.547,140.400 134.685 M112.401 136.427 C 111.191 137.093,110.021 137.827,109.801 138.056 C 109.480 138.390,114.556 135.813,115.167 135.331 C 115.876 134.772,114.194 135.438,112.401 136.427 M252.600 136.220 C 251.940 136.551,250.950 137.198,250.400 137.658 L 249.400 138.495 250.600 137.770 C 251.260 137.371,252.295 136.796,252.900 136.493 C 253.505 136.190,254.000 135.865,254.000 135.771 C 254.000 135.529,253.938 135.549,252.600 136.220 M284.947 136.918 C 285.798 137.403,287.373 138.479,288.447 139.309 C 289.521 140.139,290.396 140.679,290.391 140.509 C 290.376 139.964,284.387 135.968,283.659 136.018 C 283.517 136.027,284.096 136.432,284.947 136.918 M145.000 136.672 C 145.220 136.885,146.390 137.728,147.600 138.546 C 149.190 139.621,149.448 139.724,148.530 138.917 C 147.345 137.874,144.122 135.825,145.000 136.672 M106.900 140.061 C 105.745 140.967,104.800 141.868,104.800 142.064 C 104.800 142.259,105.385 141.891,106.100 141.246 C 106.815 140.601,107.850 139.702,108.400 139.250 C 110.237 137.737,109.029 138.391,106.900 140.061 M245.111 141.654 C 242.733 143.978,242.717 144.007,244.800 142.191 C 247.946 139.449,248.203 139.200,247.896 139.200 C 247.745 139.200,246.491 140.304,245.111 141.654 M152.400 142.675 C 153.830 144.230,155.160 145.525,155.357 145.552 C 155.810 145.613,152.588 142.116,151.000 140.823 C 150.340 140.286,150.970 141.119,152.400 142.675 M292.420 142.621 C 293.399 143.733,294.281 144.581,294.381 144.507 C 294.480 144.433,293.679 143.523,292.601 142.486 L 290.640 140.600 292.420 142.621 M116.267 141.945 C 115.864 142.104,116.892 142.226,118.551 142.217 C 120.210 142.208,121.259 142.078,120.883 141.928 C 119.983 141.570,117.193 141.580,116.267 141.945 M255.254 141.945 C 254.734 142.091,255.790 142.211,257.600 142.211 C 259.410 142.211,260.466 142.091,259.946 141.945 C 259.426 141.799,258.370 141.680,257.600 141.680 C 256.830 141.680,255.774 141.799,255.254 141.945 M122.033 142.549 C 122.445 142.917,124.800 144.000,124.800 143.821 C 124.800 143.590,122.582 142.400,122.153 142.400 C 121.996 142.400,121.942 142.467,122.033 142.549 M252.300 143.029 C 250.749 143.870,250.925 144.161,252.500 143.359 C 254.008 142.593,254.275 142.394,253.767 142.416 C 253.565 142.425,252.905 142.701,252.300 143.029 M102.400 144.523 C 101.096 146.112,100.320 147.200,100.493 147.200 C 100.739 147.200,103.687 143.553,103.541 143.427 C 103.464 143.360,102.950 143.853,102.400 144.523 M126.260 145.209 C 126.953 145.974,127.898 147.230,128.359 148.000 C 128.820 148.770,129.198 149.202,129.199 148.960 C 129.201 148.357,127.130 145.576,125.959 144.609 C 125.366 144.119,125.481 144.348,126.260 145.209 M249.729 144.900 C 249.284 145.395,248.776 146.070,248.601 146.400 C 248.263 147.037,248.355 146.950,249.976 145.100 C 250.506 144.495,250.849 144.000,250.739 144.000 C 250.629 144.000,250.175 144.405,249.729 144.900 M264.400 144.125 C 264.400 144.194,264.985 144.779,265.700 145.425 L 267.000 146.600 265.825 145.300 C 264.730 144.088,264.400 143.816,264.400 144.125 M295.775 146.532 C 296.391 147.339,296.976 148.000,297.075 148.000 C 297.353 148.000,295.621 145.660,295.109 145.344 C 294.859 145.189,295.159 145.724,295.775 146.532 M267.514 148.454 C 267.872 149.364,268.228 149.916,268.306 149.681 C 268.444 149.269,267.343 146.800,267.022 146.800 C 266.935 146.800,267.157 147.544,267.514 148.454 M108.465 148.617 C 108.209 149.178,108.007 149.854,108.016 150.119 C 108.024 150.383,108.297 149.988,108.622 149.239 C 109.305 147.665,109.161 147.090,108.465 148.617 M238.180 150.840 C 237.611 151.962,237.213 152.947,237.295 153.029 C 237.377 153.111,237.927 152.193,238.518 150.989 C 239.108 149.785,239.506 148.800,239.402 148.800 C 239.298 148.800,238.748 149.718,238.180 150.840 M247.050 150.050 C 246.733 151.636,246.774 154.394,247.128 155.283 C 247.278 155.658,247.401 154.353,247.401 152.383 C 247.403 148.358,247.397 148.316,247.050 150.050 M129.400 153.400 C 129.400 155.474,129.522 156.862,129.672 156.485 C 129.821 156.108,129.944 154.720,129.944 153.400 C 129.944 152.080,129.821 150.692,129.672 150.315 C 129.522 149.938,129.400 151.326,129.400 153.400 M298.678 151.395 C 299.044 152.162,299.414 152.719,299.501 152.632 C 299.684 152.449,298.470 150.000,298.196 150.000 C 298.095 150.000,298.312 150.628,298.678 151.395 M268.531 153.000 C 268.533 154.540,268.605 155.121,268.692 154.291 C 268.779 153.461,268.777 152.201,268.689 151.491 C 268.600 150.781,268.529 151.460,268.531 153.000 M107.714 152.600 C 107.717 153.700,107.795 154.103,107.887 153.495 C 107.979 152.886,107.977 151.986,107.882 151.495 C 107.787 151.003,107.711 151.500,107.714 152.600 M97.072 153.019 C 96.702 153.793,96.404 154.646,96.409 154.914 C 96.414 155.181,96.777 154.608,97.216 153.640 C 98.167 151.544,98.039 150.991,97.072 153.019 M236.444 154.844 C 236.198 155.551,236.066 156.200,236.152 156.285 C 236.238 156.371,236.509 155.862,236.756 155.156 C 237.002 154.449,237.134 153.800,237.048 153.715 C 236.962 153.629,236.691 154.138,236.444 154.844 M160.644 155.800 C 160.973 157.271,161.202 157.590,161.194 156.567 C 161.191 156.145,161.005 155.530,160.782 155.200 C 160.485 154.762,160.448 154.924,160.644 155.800 M95.849 156.215 C 95.712 156.573,95.615 157.166,95.634 157.533 C 95.653 157.900,95.827 157.669,96.021 157.020 C 96.398 155.758,96.265 155.133,95.849 156.215 M247.600 156.553 C 247.600 156.982,248.790 159.200,249.021 159.200 C 249.131 159.200,248.923 158.615,248.559 157.900 C 247.817 156.440,247.600 156.136,247.600 156.553 M268.000 156.688 C 268.000 156.920,267.360 158.075,266.578 159.255 C 265.629 160.688,265.503 161.002,266.199 160.200 C 267.487 158.718,268.537 156.803,268.229 156.496 C 268.103 156.370,268.000 156.456,268.000 156.688 M108.800 157.572 C 108.800 157.843,109.866 159.130,111.168 160.432 C 112.470 161.734,113.757 162.800,114.028 162.800 C 114.299 162.800,113.774 162.259,112.861 161.599 C 111.949 160.938,110.662 159.651,110.001 158.739 C 109.341 157.826,108.800 157.301,108.800 157.572 M128.119 158.970 C 127.067 160.595,125.186 162.046,123.000 162.920 C 122.120 163.271,121.627 163.568,121.904 163.579 C 123.655 163.651,129.200 159.367,129.200 157.944 C 129.200 157.390,129.050 157.533,128.119 158.970 M161.473 159.200 C 161.604 160.190,161.776 161.075,161.856 161.167 C 162.157 161.514,161.928 158.964,161.590 158.200 C 161.353 157.666,161.314 157.998,161.473 159.200 M301.473 159.600 C 301.604 160.590,301.776 161.475,301.856 161.567 C 302.157 161.914,301.928 159.364,301.590 158.600 C 301.353 158.066,301.314 158.398,301.473 159.600 M95.053 160.036 C 94.914 160.731,94.822 161.863,94.849 162.550 C 94.878 163.294,95.038 162.840,95.243 161.428 C 95.611 158.904,95.476 157.918,95.053 160.036 M234.924 162.200 C 234.926 163.520,235.001 164.012,235.090 163.293 C 235.179 162.574,235.177 161.494,235.086 160.893 C 234.995 160.292,234.922 160.880,234.924 162.200 M251.378 161.564 C 251.769 162.198,254.629 163.603,255.484 163.582 C 255.878 163.573,255.527 163.325,254.704 163.031 C 253.881 162.737,252.733 162.186,252.154 161.807 C 251.575 161.427,251.226 161.318,251.378 161.564 M162.144 166.000 C 162.144 168.090,162.212 168.945,162.294 167.900 C 162.376 166.855,162.376 165.145,162.294 164.100 C 162.212 163.055,162.144 163.910,162.144 166.000 M116.400 163.603 C 117.389 163.917,121.488 164.134,121.167 163.856 C 121.075 163.777,119.740 163.616,118.200 163.499 C 116.573 163.375,115.819 163.419,116.400 163.603 M257.305 163.887 C 257.914 163.979,258.814 163.977,259.305 163.882 C 259.797 163.787,259.300 163.711,258.200 163.714 C 257.100 163.717,256.697 163.795,257.305 163.887 M302.131 166.200 C 302.133 167.740,302.205 168.321,302.292 167.491 C 302.379 166.661,302.377 165.401,302.289 164.691 C 302.200 163.981,302.129 164.660,302.131 166.200 M94.828 169.833 C 94.844 170.915,95.004 172.160,95.185 172.600 C 95.378 173.070,95.426 172.327,95.302 170.800 C 95.048 167.655,94.789 167.129,94.828 169.833 M234.840 170.433 C 234.862 171.185,235.030 172.250,235.213 172.800 C 235.429 173.446,235.466 173.020,235.319 171.600 C 235.059 169.083,234.781 168.407,234.840 170.433 M301.440 172.440 C 301.293 173.357,301.252 174.185,301.347 174.280 C 301.442 174.376,301.646 173.710,301.800 172.800 C 301.954 171.890,301.996 171.062,301.893 170.960 C 301.790 170.857,301.587 171.523,301.440 172.440 M161.649 171.800 C 161.616 172.240,161.496 173.050,161.383 173.600 L 161.177 174.600 161.606 173.619 C 161.842 173.079,161.961 172.269,161.872 171.819 C 161.713 171.021,161.707 171.021,161.649 171.800 M300.629 175.829 C 300.481 176.415,300.438 176.972,300.532 177.066 C 300.627 177.160,300.824 176.758,300.971 176.171 C 301.119 175.585,301.162 175.028,301.068 174.934 C 300.973 174.840,300.776 175.242,300.629 175.829 M157.853 182.100 L 157.133 183.400 157.958 182.400 C 158.689 181.513,159.014 180.800,158.686 180.800 C 158.624 180.800,158.249 181.385,157.853 182.100 M238.812 182.207 C 238.798 182.674,240.721 185.600,241.042 185.600 C 241.159 185.600,240.910 185.105,240.488 184.500 C 240.067 183.895,239.520 183.040,239.273 182.600 C 239.026 182.160,238.819 181.983,238.812 182.207 M98.800 182.983 C 98.800 183.688,102.480 188.342,104.665 190.399 L 107.000 192.599 104.537 189.999 C 103.183 188.570,101.338 186.335,100.437 185.034 C 99.537 183.732,98.800 182.809,98.800 182.983 M296.070 185.341 C 294.450 187.787,290.296 192.087,287.800 193.902 C 287.140 194.382,286.723 194.780,286.874 194.787 C 288.162 194.847,295.417 187.487,297.203 184.308 C 298.498 182.005,297.945 182.508,296.070 185.341 M154.555 186.681 C 153.707 187.716,153.222 188.434,153.477 188.276 C 154.021 187.940,156.555 184.800,156.282 184.800 C 156.180 184.800,155.403 185.647,154.555 186.681 M241.999 187.100 C 242.522 187.815,243.013 188.400,243.089 188.400 C 243.393 188.400,242.401 186.900,241.745 186.367 C 241.313 186.016,241.410 186.296,241.999 187.100 M244.800 190.200 C 245.546 190.970,246.247 191.600,246.357 191.600 C 246.467 191.600,245.946 190.970,245.200 190.200 C 244.454 189.430,243.753 188.800,243.643 188.800 C 243.533 188.800,244.054 189.430,244.800 190.200 M148.600 192.663 C 146.888 194.231,146.836 194.318,148.238 193.263 C 149.719 192.149,151.127 190.776,150.749 190.815 C 150.667 190.824,149.700 191.655,148.600 192.663 M248.461 193.283 C 249.264 194.007,250.524 194.923,251.261 195.317 C 252.549 196.007,252.562 196.007,251.610 195.317 C 251.066 194.923,249.806 194.007,248.810 193.283 L 247.000 191.966 248.461 193.283 M107.205 192.701 C 107.210 192.980,108.075 193.597,111.000 195.405 C 112.739 196.480,111.744 195.583,109.300 193.871 C 108.145 193.063,107.202 192.536,107.205 192.701 M144.696 195.350 C 142.775 196.531,142.238 197.089,143.800 196.281 C 145.054 195.633,146.745 194.426,146.400 194.425 C 146.290 194.425,145.523 194.841,144.696 195.350 M112.800 196.430 C 113.730 197.078,116.812 198.403,117.333 198.378 C 117.590 198.366,116.900 197.994,115.800 197.550 C 114.700 197.107,113.629 196.577,113.420 196.372 C 113.211 196.167,112.851 196.003,112.620 196.006 C 112.389 196.009,112.470 196.200,112.800 196.430 M140.200 197.629 C 139.320 198.052,139.050 198.286,139.600 198.149 C 140.733 197.867,142.812 196.825,142.200 196.846 C 141.980 196.853,141.080 197.206,140.200 197.629 M254.454 196.987 C 254.790 197.323,257.600 198.416,257.600 198.211 C 257.600 198.101,256.948 197.738,256.151 197.405 C 254.675 196.789,254.118 196.651,254.454 196.987 M278.616 198.264 C 277.745 198.578,276.935 198.931,276.817 199.050 C 276.501 199.366,278.809 198.753,280.200 198.151 C 281.800 197.458,280.617 197.543,278.616 198.264 M118.800 198.800 C 120.168 199.238,121.219 199.238,120.200 198.800 C 119.760 198.611,119.040 198.462,118.600 198.468 C 117.957 198.477,117.996 198.543,118.800 198.800 M136.600 198.800 C 136.096 199.017,136.022 199.144,136.400 199.144 C 136.730 199.144,137.360 198.989,137.800 198.800 C 138.304 198.583,138.378 198.456,138.000 198.456 C 137.670 198.456,137.040 198.611,136.600 198.800 M176.800 199.037 C 177.570 199.370,178.809 200.218,179.553 200.921 C 180.735 202.038,180.824 202.070,180.257 201.176 C 179.580 200.109,176.893 198.388,175.946 198.416 C 175.645 198.424,176.030 198.704,176.800 199.037 M219.800 198.800 C 219.508 199.273,219.899 199.273,221.000 198.800 C 221.771 198.469,221.769 198.455,220.924 198.428 C 220.442 198.413,219.936 198.580,219.800 198.800 M123.800 199.665 C 126.370 200.005,131.240 200.005,133.800 199.663 C 134.959 199.509,132.858 199.397,128.800 199.398 C 124.758 199.399,122.645 199.512,123.800 199.665 M226.400 199.322 C 226.400 199.392,226.963 199.979,227.650 200.625 C 228.525 201.448,228.747 201.548,228.391 200.959 C 227.951 200.233,226.400 198.957,226.400 199.322 M261.233 199.349 C 261.325 199.431,262.300 199.601,263.400 199.728 C 264.749 199.884,265.074 199.849,264.400 199.620 C 263.401 199.280,260.918 199.068,261.233 199.349 M272.400 199.600 L 271.000 199.895 272.400 199.900 C 273.170 199.903,274.340 199.768,275.000 199.600 L 276.200 199.295 275.000 199.300 C 274.340 199.303,273.170 199.438,272.400 199.600 M229.103 204.496 C 229.313 207.890,229.531 208.320,229.562 205.400 C 229.576 204.080,229.444 202.773,229.268 202.496 C 229.092 202.220,229.018 203.120,229.103 204.496 M181.524 203.929 C 181.900 204.770,182.518 205.895,182.896 206.429 C 183.274 206.963,183.042 206.275,182.381 204.900 C 181.078 202.193,180.405 201.430,181.524 203.929 M167.489 204.131 C 167.370 204.863,167.418 206.078,167.595 206.831 C 167.868 207.989,167.924 207.784,167.959 205.500 C 168.004 202.559,167.827 202.045,167.489 204.131 M168.006 209.433 C 168.009 209.855,168.195 210.470,168.418 210.800 C 168.715 211.238,168.752 211.076,168.556 210.200 C 168.227 208.729,167.998 208.410,168.006 209.433 M185.600 210.200 C 186.346 210.970,187.047 211.600,187.157 211.600 C 187.267 211.600,186.746 210.970,186.000 210.200 C 185.254 209.430,184.553 208.800,184.443 208.800 C 184.333 208.800,184.854 209.430,185.600 210.200 M208.818 211.850 C 206.936 213.186,206.771 213.418,208.229 212.677 C 208.905 212.334,209.692 211.771,209.978 211.426 C 210.660 210.605,210.477 210.672,208.818 211.850 M227.078 213.805 C 226.712 214.572,226.495 215.200,226.596 215.200 C 226.870 215.200,228.084 212.751,227.901 212.568 C 227.814 212.481,227.444 213.038,227.078 213.805 M192.800 214.400 C 193.130 214.613,193.760 214.778,194.200 214.766 L 195.000 214.744 194.200 214.400 C 193.004 213.886,192.005 213.886,192.800 214.400 M202.800 214.400 C 201.996 214.657,201.957 214.723,202.600 214.732 C 203.040 214.738,203.760 214.589,204.200 214.400 C 205.219 213.962,204.168 213.962,202.800 214.400 M197.500 215.089 C 198.215 215.178,199.385 215.178,200.100 215.089 C 200.815 215.001,200.230 214.928,198.800 214.928 C 197.370 214.928,196.785 215.001,197.500 215.089 M170.400 215.386 C 170.400 215.941,173.106 219.373,174.668 220.798 L 176.200 222.196 174.549 220.398 C 173.640 219.409,172.335 217.808,171.649 216.840 C 170.962 215.872,170.400 215.218,170.400 215.386 M225.447 216.584 C 225.093 217.125,223.701 218.790,222.356 220.284 L 219.909 223.000 222.768 220.048 C 224.341 218.424,225.808 216.759,226.028 216.348 C 226.607 215.265,226.204 215.430,225.447 216.584 M181.200 225.779 C 181.200 225.889,181.740 226.259,182.400 226.600 C 183.060 226.941,183.600 227.131,183.600 227.021 C 183.600 226.911,183.060 226.541,182.400 226.200 C 181.740 225.859,181.200 225.669,181.200 225.779 M214.300 226.229 C 212.805 227.040,212.896 227.378,214.400 226.600 C 215.060 226.259,215.600 225.894,215.600 225.790 C 215.600 225.532,215.557 225.547,214.300 226.229 M188.400 229.200 C 188.730 229.413,189.360 229.578,189.800 229.566 L 190.600 229.544 189.800 229.200 C 188.604 228.686,187.605 228.686,188.400 229.200 M207.000 229.200 C 206.496 229.417,206.422 229.544,206.800 229.544 C 207.130 229.544,207.760 229.389,208.200 229.200 C 208.704 228.983,208.778 228.856,208.400 228.856 C 208.070 228.856,207.440 229.011,207.000 229.200 M192.400 230.012 C 193.395 230.319,198.284 230.532,197.967 230.255 C 197.875 230.175,196.360 230.018,194.600 229.907 C 192.840 229.795,191.850 229.843,192.400 230.012 M199.700 230.291 C 200.525 230.378,201.875 230.378,202.700 230.291 C 203.525 230.205,202.850 230.134,201.200 230.134 C 199.550 230.134,198.875 230.205,199.700 230.291 M324.987 294.600 C 324.987 307.140,325.038 312.212,325.100 305.872 C 325.162 299.531,325.162 289.271,325.100 283.072 C 325.038 276.872,324.987 282.060,324.987 294.600 M324.501 319.000 C 324.505 319.880,324.587 320.193,324.683 319.695 C 324.779 319.198,324.775 318.478,324.675 318.095 C 324.575 317.713,324.496 318.120,324.501 319.000 M72.509 320.800 C 72.509 321.790,72.587 322.195,72.682 321.700 C 72.778 321.205,72.778 320.395,72.682 319.900 C 72.587 319.405,72.509 319.810,72.509 320.800 M72.428 332.633 C 72.444 333.495,72.609 334.560,72.796 335.000 C 73.008 335.498,73.051 334.969,72.912 333.600 C 72.644 330.965,72.389 330.457,72.428 332.633 M323.840 334.040 C 323.693 334.957,323.652 335.785,323.747 335.880 C 323.842 335.976,324.046 335.310,324.200 334.400 C 324.354 333.490,324.396 332.662,324.293 332.560 C 324.190 332.457,323.987 333.123,323.840 334.040 M316.426 348.916 C 314.383 351.204,314.245 351.428,315.758 350.000 C 317.413 348.438,319.502 345.968,319.127 346.016 C 319.057 346.025,317.842 347.330,316.426 348.916 M79.583 348.500 C 80.564 349.545,81.419 350.400,81.483 350.400 C 81.784 350.400,81.466 350.041,79.700 348.383 L 77.800 346.600 79.583 348.500 M311.985 352.829 L 310.600 354.058 312.100 352.981 C 313.426 352.030,313.857 351.600,313.485 351.600 C 313.422 351.600,312.747 352.153,311.985 352.829 M87.600 354.996 C 87.600 355.270,90.049 356.484,90.232 356.301 C 90.319 356.214,89.762 355.844,88.995 355.478 C 88.228 355.112,87.600 354.895,87.600 354.996 M165.900 359.100 C 188.835 359.157,226.365 359.157,249.300 359.100 C 272.235 359.043,253.470 358.996,207.600 358.996 C 161.730 358.996,142.965 359.043,165.900 359.100 " stroke="none" fill="#7494a6" fill-rule="evenodd"></path></g></svg>